<mxfile host="Electron" modified="2023-12-21T11:40:58.767Z" agent="Mozilla/5.0 (Windows NT 10.0; Win64; x64) AppleWebKit/537.36 (KHTML, like Gecko) draw.io/22.1.2 Chrome/114.0.5735.289 Electron/25.9.4 Safari/537.36" etag="vLPTdPeQ5oedzDnptEhh" version="22.1.2" type="device">
  <diagram id="C5RBs43oDa-KdzZeNtuy" name="Page-1">
    <mxGraphModel dx="2886" dy="2427" grid="1" gridSize="10" guides="1" tooltips="1" connect="1" arrows="1" fold="1" page="1" pageScale="1" pageWidth="827" pageHeight="1169" math="0" shadow="0">
      <root>
        <mxCell id="WIyWlLk6GJQsqaUBKTNV-0" />
        <mxCell id="WIyWlLk6GJQsqaUBKTNV-1" parent="WIyWlLk6GJQsqaUBKTNV-0" />
        <mxCell id="5OsUXXkd6BhJ_L30GWgg-242" style="edgeStyle=orthogonalEdgeStyle;rounded=0;orthogonalLoop=1;jettySize=auto;html=1;" edge="1" parent="WIyWlLk6GJQsqaUBKTNV-1" source="5OsUXXkd6BhJ_L30GWgg-4">
          <mxGeometry relative="1" as="geometry">
            <mxPoint x="360" y="-40" as="targetPoint" />
          </mxGeometry>
        </mxCell>
        <mxCell id="5OsUXXkd6BhJ_L30GWgg-4" value="Login" style="swimlane;fontStyle=1;align=center;verticalAlign=top;childLayout=stackLayout;horizontal=1;startSize=26;horizontalStack=0;resizeParent=1;resizeParentMax=0;resizeLast=0;collapsible=1;marginBottom=0;whiteSpace=wrap;html=1;flipH=0;flipV=0;" vertex="1" parent="WIyWlLk6GJQsqaUBKTNV-1">
          <mxGeometry x="250" y="50" width="200" height="320" as="geometry" />
        </mxCell>
        <mxCell id="5OsUXXkd6BhJ_L30GWgg-5" value="Поля&lt;br&gt;" style="text;strokeColor=none;fillColor=#999999;align=left;verticalAlign=top;spacingLeft=4;spacingRight=4;overflow=hidden;rotatable=0;points=[[0,0.5],[1,0.5]];portConstraint=eastwest;whiteSpace=wrap;html=1;" vertex="1" parent="5OsUXXkd6BhJ_L30GWgg-4">
          <mxGeometry y="26" width="200" height="26" as="geometry" />
        </mxCell>
        <mxCell id="5OsUXXkd6BhJ_L30GWgg-8" value="User_name" style="text;strokeColor=none;fillColor=none;align=left;verticalAlign=top;spacingLeft=4;spacingRight=4;overflow=hidden;rotatable=0;points=[[0,0.5],[1,0.5]];portConstraint=eastwest;whiteSpace=wrap;html=1;" vertex="1" parent="5OsUXXkd6BhJ_L30GWgg-4">
          <mxGeometry y="52" width="200" height="26" as="geometry" />
        </mxCell>
        <mxCell id="5OsUXXkd6BhJ_L30GWgg-50" value="User_password" style="text;strokeColor=none;fillColor=none;align=left;verticalAlign=top;spacingLeft=4;spacingRight=4;overflow=hidden;rotatable=0;points=[[0,0.5],[1,0.5]];portConstraint=eastwest;whiteSpace=wrap;html=1;" vertex="1" parent="5OsUXXkd6BhJ_L30GWgg-4">
          <mxGeometry y="78" width="200" height="26" as="geometry" />
        </mxCell>
        <mxCell id="5OsUXXkd6BhJ_L30GWgg-9" value="_contentLoaded" style="text;strokeColor=none;fillColor=none;align=left;verticalAlign=top;spacingLeft=4;spacingRight=4;overflow=hidden;rotatable=0;points=[[0,0.5],[1,0.5]];portConstraint=eastwest;whiteSpace=wrap;html=1;" vertex="1" parent="5OsUXXkd6BhJ_L30GWgg-4">
          <mxGeometry y="104" width="200" height="26" as="geometry" />
        </mxCell>
        <mxCell id="5OsUXXkd6BhJ_L30GWgg-6" value="" style="line;strokeWidth=1;fillColor=none;align=left;verticalAlign=middle;spacingTop=-1;spacingLeft=3;spacingRight=3;rotatable=0;labelPosition=right;points=[];portConstraint=eastwest;strokeColor=inherit;" vertex="1" parent="5OsUXXkd6BhJ_L30GWgg-4">
          <mxGeometry y="130" width="200" height="8" as="geometry" />
        </mxCell>
        <mxCell id="5OsUXXkd6BhJ_L30GWgg-12" value="Методы" style="text;strokeColor=none;fillColor=#999999;align=left;verticalAlign=top;spacingLeft=4;spacingRight=4;overflow=hidden;rotatable=0;points=[[0,0.5],[1,0.5]];portConstraint=eastwest;whiteSpace=wrap;html=1;" vertex="1" parent="5OsUXXkd6BhJ_L30GWgg-4">
          <mxGeometry y="138" width="200" height="26" as="geometry" />
        </mxCell>
        <mxCell id="5OsUXXkd6BhJ_L30GWgg-7" value="Button_Click" style="text;strokeColor=none;fillColor=none;align=left;verticalAlign=top;spacingLeft=4;spacingRight=4;overflow=hidden;rotatable=0;points=[[0,0.5],[1,0.5]];portConstraint=eastwest;whiteSpace=wrap;html=1;" vertex="1" parent="5OsUXXkd6BhJ_L30GWgg-4">
          <mxGeometry y="164" width="200" height="26" as="geometry" />
        </mxCell>
        <mxCell id="5OsUXXkd6BhJ_L30GWgg-53" value="Login" style="text;strokeColor=none;fillColor=none;align=left;verticalAlign=top;spacingLeft=4;spacingRight=4;overflow=hidden;rotatable=0;points=[[0,0.5],[1,0.5]];portConstraint=eastwest;whiteSpace=wrap;html=1;" vertex="1" parent="5OsUXXkd6BhJ_L30GWgg-4">
          <mxGeometry y="190" width="200" height="26" as="geometry" />
        </mxCell>
        <mxCell id="5OsUXXkd6BhJ_L30GWgg-52" value="TextBlock_MouseLeftButtonDown" style="text;strokeColor=none;fillColor=none;align=left;verticalAlign=top;spacingLeft=4;spacingRight=4;overflow=hidden;rotatable=0;points=[[0,0.5],[1,0.5]];portConstraint=eastwest;whiteSpace=wrap;html=1;" vertex="1" parent="5OsUXXkd6BhJ_L30GWgg-4">
          <mxGeometry y="216" width="200" height="26" as="geometry" />
        </mxCell>
        <mxCell id="5OsUXXkd6BhJ_L30GWgg-51" value="TextBox_TextChanged" style="text;strokeColor=none;fillColor=none;align=left;verticalAlign=top;spacingLeft=4;spacingRight=4;overflow=hidden;rotatable=0;points=[[0,0.5],[1,0.5]];portConstraint=eastwest;whiteSpace=wrap;html=1;" vertex="1" parent="5OsUXXkd6BhJ_L30GWgg-4">
          <mxGeometry y="242" width="200" height="26" as="geometry" />
        </mxCell>
        <mxCell id="5OsUXXkd6BhJ_L30GWgg-10" value="IComponentConnector.Connect" style="text;strokeColor=none;fillColor=none;align=left;verticalAlign=top;spacingLeft=4;spacingRight=4;overflow=hidden;rotatable=0;points=[[0,0.5],[1,0.5]];portConstraint=eastwest;whiteSpace=wrap;html=1;" vertex="1" parent="5OsUXXkd6BhJ_L30GWgg-4">
          <mxGeometry y="268" width="200" height="26" as="geometry" />
        </mxCell>
        <mxCell id="5OsUXXkd6BhJ_L30GWgg-11" value="InitializeComponent" style="text;strokeColor=none;fillColor=none;align=left;verticalAlign=top;spacingLeft=4;spacingRight=4;overflow=hidden;rotatable=0;points=[[0,0.5],[1,0.5]];portConstraint=eastwest;whiteSpace=wrap;html=1;" vertex="1" parent="5OsUXXkd6BhJ_L30GWgg-4">
          <mxGeometry y="294" width="200" height="26" as="geometry" />
        </mxCell>
        <mxCell id="5OsUXXkd6BhJ_L30GWgg-243" style="edgeStyle=orthogonalEdgeStyle;rounded=0;orthogonalLoop=1;jettySize=auto;html=1;" edge="1" parent="WIyWlLk6GJQsqaUBKTNV-1" source="5OsUXXkd6BhJ_L30GWgg-13">
          <mxGeometry relative="1" as="geometry">
            <mxPoint x="480" y="-40" as="targetPoint" />
            <Array as="points">
              <mxPoint x="460" y="501" />
              <mxPoint x="460" y="151" />
              <mxPoint x="480" y="151" />
            </Array>
          </mxGeometry>
        </mxCell>
        <mxCell id="5OsUXXkd6BhJ_L30GWgg-13" value="Registration" style="swimlane;fontStyle=1;align=center;verticalAlign=top;childLayout=stackLayout;horizontal=1;startSize=26;horizontalStack=0;resizeParent=1;resizeParentMax=0;resizeLast=0;collapsible=1;marginBottom=0;whiteSpace=wrap;html=1;" vertex="1" parent="WIyWlLk6GJQsqaUBKTNV-1">
          <mxGeometry x="480" y="340" width="200" height="322" as="geometry" />
        </mxCell>
        <mxCell id="5OsUXXkd6BhJ_L30GWgg-14" value="Поля&lt;br&gt;" style="text;strokeColor=none;fillColor=#999999;align=left;verticalAlign=top;spacingLeft=4;spacingRight=4;overflow=hidden;rotatable=0;points=[[0,0.5],[1,0.5]];portConstraint=eastwest;whiteSpace=wrap;html=1;" vertex="1" parent="5OsUXXkd6BhJ_L30GWgg-13">
          <mxGeometry y="26" width="200" height="26" as="geometry" />
        </mxCell>
        <mxCell id="5OsUXXkd6BhJ_L30GWgg-15" value="_contentLoaded" style="text;strokeColor=none;fillColor=none;align=left;verticalAlign=top;spacingLeft=4;spacingRight=4;overflow=hidden;rotatable=0;points=[[0,0.5],[1,0.5]];portConstraint=eastwest;whiteSpace=wrap;html=1;" vertex="1" parent="5OsUXXkd6BhJ_L30GWgg-13">
          <mxGeometry y="52" width="200" height="28" as="geometry" />
        </mxCell>
        <mxCell id="5OsUXXkd6BhJ_L30GWgg-54" value="User_Password" style="text;strokeColor=none;fillColor=none;align=left;verticalAlign=top;spacingLeft=4;spacingRight=4;overflow=hidden;rotatable=0;points=[[0,0.5],[1,0.5]];portConstraint=eastwest;whiteSpace=wrap;html=1;" vertex="1" parent="5OsUXXkd6BhJ_L30GWgg-13">
          <mxGeometry y="80" width="200" height="26" as="geometry" />
        </mxCell>
        <mxCell id="5OsUXXkd6BhJ_L30GWgg-22" value="Secret" style="text;strokeColor=none;fillColor=none;align=left;verticalAlign=top;spacingLeft=4;spacingRight=4;overflow=hidden;rotatable=0;points=[[0,0.5],[1,0.5]];portConstraint=eastwest;whiteSpace=wrap;html=1;" vertex="1" parent="5OsUXXkd6BhJ_L30GWgg-13">
          <mxGeometry y="106" width="200" height="26" as="geometry" />
        </mxCell>
        <mxCell id="5OsUXXkd6BhJ_L30GWgg-16" value="User_Name" style="text;strokeColor=none;fillColor=none;align=left;verticalAlign=top;spacingLeft=4;spacingRight=4;overflow=hidden;rotatable=0;points=[[0,0.5],[1,0.5]];portConstraint=eastwest;whiteSpace=wrap;html=1;" vertex="1" parent="5OsUXXkd6BhJ_L30GWgg-13">
          <mxGeometry y="132" width="200" height="26" as="geometry" />
        </mxCell>
        <mxCell id="5OsUXXkd6BhJ_L30GWgg-17" value="" style="line;strokeWidth=1;fillColor=none;align=left;verticalAlign=middle;spacingTop=-1;spacingLeft=3;spacingRight=3;rotatable=0;labelPosition=right;points=[];portConstraint=eastwest;strokeColor=inherit;" vertex="1" parent="5OsUXXkd6BhJ_L30GWgg-13">
          <mxGeometry y="158" width="200" height="8" as="geometry" />
        </mxCell>
        <mxCell id="5OsUXXkd6BhJ_L30GWgg-18" value="Методы" style="text;strokeColor=none;fillColor=#999999;align=left;verticalAlign=top;spacingLeft=4;spacingRight=4;overflow=hidden;rotatable=0;points=[[0,0.5],[1,0.5]];portConstraint=eastwest;whiteSpace=wrap;html=1;" vertex="1" parent="5OsUXXkd6BhJ_L30GWgg-13">
          <mxGeometry y="166" width="200" height="26" as="geometry" />
        </mxCell>
        <mxCell id="5OsUXXkd6BhJ_L30GWgg-19" value="Button_Click" style="text;strokeColor=none;fillColor=none;align=left;verticalAlign=top;spacingLeft=4;spacingRight=4;overflow=hidden;rotatable=0;points=[[0,0.5],[1,0.5]];portConstraint=eastwest;whiteSpace=wrap;html=1;" vertex="1" parent="5OsUXXkd6BhJ_L30GWgg-13">
          <mxGeometry y="192" width="200" height="26" as="geometry" />
        </mxCell>
        <mxCell id="5OsUXXkd6BhJ_L30GWgg-60" value="InitializeComponent" style="text;strokeColor=none;fillColor=none;align=left;verticalAlign=top;spacingLeft=4;spacingRight=4;overflow=hidden;rotatable=0;points=[[0,0.5],[1,0.5]];portConstraint=eastwest;whiteSpace=wrap;html=1;" vertex="1" parent="5OsUXXkd6BhJ_L30GWgg-13">
          <mxGeometry y="218" width="200" height="26" as="geometry" />
        </mxCell>
        <mxCell id="5OsUXXkd6BhJ_L30GWgg-59" value="Registration" style="text;strokeColor=none;fillColor=none;align=left;verticalAlign=top;spacingLeft=4;spacingRight=4;overflow=hidden;rotatable=0;points=[[0,0.5],[1,0.5]];portConstraint=eastwest;whiteSpace=wrap;html=1;" vertex="1" parent="5OsUXXkd6BhJ_L30GWgg-13">
          <mxGeometry y="244" width="200" height="26" as="geometry" />
        </mxCell>
        <mxCell id="5OsUXXkd6BhJ_L30GWgg-58" value="Secret_TextChanged" style="text;strokeColor=none;fillColor=none;align=left;verticalAlign=top;spacingLeft=4;spacingRight=4;overflow=hidden;rotatable=0;points=[[0,0.5],[1,0.5]];portConstraint=eastwest;whiteSpace=wrap;html=1;" vertex="1" parent="5OsUXXkd6BhJ_L30GWgg-13">
          <mxGeometry y="270" width="200" height="26" as="geometry" />
        </mxCell>
        <mxCell id="5OsUXXkd6BhJ_L30GWgg-20" value="IComponentConnector.Connect" style="text;strokeColor=none;fillColor=none;align=left;verticalAlign=top;spacingLeft=4;spacingRight=4;overflow=hidden;rotatable=0;points=[[0,0.5],[1,0.5]];portConstraint=eastwest;whiteSpace=wrap;html=1;" vertex="1" parent="5OsUXXkd6BhJ_L30GWgg-13">
          <mxGeometry y="296" width="200" height="26" as="geometry" />
        </mxCell>
        <mxCell id="5OsUXXkd6BhJ_L30GWgg-234" style="edgeStyle=orthogonalEdgeStyle;rounded=0;orthogonalLoop=1;jettySize=auto;html=1;" edge="1" parent="WIyWlLk6GJQsqaUBKTNV-1" source="5OsUXXkd6BhJ_L30GWgg-41">
          <mxGeometry relative="1" as="geometry">
            <mxPoint x="820" y="-40" as="targetPoint" />
          </mxGeometry>
        </mxCell>
        <mxCell id="5OsUXXkd6BhJ_L30GWgg-41" value="Library" style="swimlane;fontStyle=1;align=center;verticalAlign=top;childLayout=stackLayout;horizontal=1;startSize=26;horizontalStack=0;resizeParent=1;resizeParentMax=0;resizeLast=0;collapsible=1;marginBottom=0;whiteSpace=wrap;html=1;" vertex="1" parent="WIyWlLk6GJQsqaUBKTNV-1">
          <mxGeometry x="720" y="50" width="200" height="450" as="geometry" />
        </mxCell>
        <mxCell id="5OsUXXkd6BhJ_L30GWgg-42" value="Поля&lt;br&gt;" style="text;strokeColor=none;fillColor=#999999;align=left;verticalAlign=top;spacingLeft=4;spacingRight=4;overflow=hidden;rotatable=0;points=[[0,0.5],[1,0.5]];portConstraint=eastwest;whiteSpace=wrap;html=1;" vertex="1" parent="5OsUXXkd6BhJ_L30GWgg-41">
          <mxGeometry y="26" width="200" height="26" as="geometry" />
        </mxCell>
        <mxCell id="5OsUXXkd6BhJ_L30GWgg-43" value="MyImage1" style="text;strokeColor=none;fillColor=none;align=left;verticalAlign=top;spacingLeft=4;spacingRight=4;overflow=hidden;rotatable=0;points=[[0,0.5],[1,0.5]];portConstraint=eastwest;whiteSpace=wrap;html=1;" vertex="1" parent="5OsUXXkd6BhJ_L30GWgg-41">
          <mxGeometry y="52" width="200" height="26" as="geometry" />
        </mxCell>
        <mxCell id="5OsUXXkd6BhJ_L30GWgg-44" value="MyImage2" style="text;strokeColor=none;fillColor=none;align=left;verticalAlign=top;spacingLeft=4;spacingRight=4;overflow=hidden;rotatable=0;points=[[0,0.5],[1,0.5]];portConstraint=eastwest;whiteSpace=wrap;html=1;" vertex="1" parent="5OsUXXkd6BhJ_L30GWgg-41">
          <mxGeometry y="78" width="200" height="26" as="geometry" />
        </mxCell>
        <mxCell id="5OsUXXkd6BhJ_L30GWgg-77" value="MyImage3" style="text;strokeColor=none;fillColor=none;align=left;verticalAlign=top;spacingLeft=4;spacingRight=4;overflow=hidden;rotatable=0;points=[[0,0.5],[1,0.5]];portConstraint=eastwest;whiteSpace=wrap;html=1;" vertex="1" parent="5OsUXXkd6BhJ_L30GWgg-41">
          <mxGeometry y="104" width="200" height="26" as="geometry" />
        </mxCell>
        <mxCell id="5OsUXXkd6BhJ_L30GWgg-76" value="MyImage4" style="text;strokeColor=none;fillColor=none;align=left;verticalAlign=top;spacingLeft=4;spacingRight=4;overflow=hidden;rotatable=0;points=[[0,0.5],[1,0.5]];portConstraint=eastwest;whiteSpace=wrap;html=1;" vertex="1" parent="5OsUXXkd6BhJ_L30GWgg-41">
          <mxGeometry y="130" width="200" height="26" as="geometry" />
        </mxCell>
        <mxCell id="5OsUXXkd6BhJ_L30GWgg-75" value="MyImage5" style="text;strokeColor=none;fillColor=none;align=left;verticalAlign=top;spacingLeft=4;spacingRight=4;overflow=hidden;rotatable=0;points=[[0,0.5],[1,0.5]];portConstraint=eastwest;whiteSpace=wrap;html=1;" vertex="1" parent="5OsUXXkd6BhJ_L30GWgg-41">
          <mxGeometry y="156" width="200" height="26" as="geometry" />
        </mxCell>
        <mxCell id="5OsUXXkd6BhJ_L30GWgg-45" value="MyImage6" style="text;strokeColor=none;fillColor=none;align=left;verticalAlign=top;spacingLeft=4;spacingRight=4;overflow=hidden;rotatable=0;points=[[0,0.5],[1,0.5]];portConstraint=eastwest;whiteSpace=wrap;html=1;" vertex="1" parent="5OsUXXkd6BhJ_L30GWgg-41">
          <mxGeometry y="182" width="200" height="26" as="geometry" />
        </mxCell>
        <mxCell id="5OsUXXkd6BhJ_L30GWgg-78" value="_contentLoaded" style="text;strokeColor=none;fillColor=none;align=left;verticalAlign=top;spacingLeft=4;spacingRight=4;overflow=hidden;rotatable=0;points=[[0,0.5],[1,0.5]];portConstraint=eastwest;whiteSpace=wrap;html=1;" vertex="1" parent="5OsUXXkd6BhJ_L30GWgg-41">
          <mxGeometry y="208" width="200" height="26" as="geometry" />
        </mxCell>
        <mxCell id="5OsUXXkd6BhJ_L30GWgg-46" value="" style="line;strokeWidth=1;fillColor=none;align=left;verticalAlign=middle;spacingTop=-1;spacingLeft=3;spacingRight=3;rotatable=0;labelPosition=right;points=[];portConstraint=eastwest;strokeColor=inherit;" vertex="1" parent="5OsUXXkd6BhJ_L30GWgg-41">
          <mxGeometry y="234" width="200" height="8" as="geometry" />
        </mxCell>
        <mxCell id="5OsUXXkd6BhJ_L30GWgg-47" value="Методы" style="text;strokeColor=none;fillColor=#999999;align=left;verticalAlign=top;spacingLeft=4;spacingRight=4;overflow=hidden;rotatable=0;points=[[0,0.5],[1,0.5]];portConstraint=eastwest;whiteSpace=wrap;html=1;" vertex="1" parent="5OsUXXkd6BhJ_L30GWgg-41">
          <mxGeometry y="242" width="200" height="26" as="geometry" />
        </mxCell>
        <mxCell id="5OsUXXkd6BhJ_L30GWgg-48" value="Button_Click" style="text;strokeColor=none;fillColor=none;align=left;verticalAlign=top;spacingLeft=4;spacingRight=4;overflow=hidden;rotatable=0;points=[[0,0.5],[1,0.5]];portConstraint=eastwest;whiteSpace=wrap;html=1;" vertex="1" parent="5OsUXXkd6BhJ_L30GWgg-41">
          <mxGeometry y="268" width="200" height="26" as="geometry" />
        </mxCell>
        <mxCell id="5OsUXXkd6BhJ_L30GWgg-49" value="IComponentConnector.Connect" style="text;strokeColor=none;fillColor=none;align=left;verticalAlign=top;spacingLeft=4;spacingRight=4;overflow=hidden;rotatable=0;points=[[0,0.5],[1,0.5]];portConstraint=eastwest;whiteSpace=wrap;html=1;" vertex="1" parent="5OsUXXkd6BhJ_L30GWgg-41">
          <mxGeometry y="294" width="200" height="26" as="geometry" />
        </mxCell>
        <mxCell id="5OsUXXkd6BhJ_L30GWgg-85" value="Image_MouseLeftButtonDown" style="text;strokeColor=none;fillColor=none;align=left;verticalAlign=top;spacingLeft=4;spacingRight=4;overflow=hidden;rotatable=0;points=[[0,0.5],[1,0.5]];portConstraint=eastwest;whiteSpace=wrap;html=1;" vertex="1" parent="5OsUXXkd6BhJ_L30GWgg-41">
          <mxGeometry y="320" width="200" height="26" as="geometry" />
        </mxCell>
        <mxCell id="5OsUXXkd6BhJ_L30GWgg-84" value="InitializeComponent" style="text;strokeColor=none;fillColor=none;align=left;verticalAlign=top;spacingLeft=4;spacingRight=4;overflow=hidden;rotatable=0;points=[[0,0.5],[1,0.5]];portConstraint=eastwest;whiteSpace=wrap;html=1;" vertex="1" parent="5OsUXXkd6BhJ_L30GWgg-41">
          <mxGeometry y="346" width="200" height="26" as="geometry" />
        </mxCell>
        <mxCell id="5OsUXXkd6BhJ_L30GWgg-83" value="Library_Loaded" style="text;strokeColor=none;fillColor=none;align=left;verticalAlign=top;spacingLeft=4;spacingRight=4;overflow=hidden;rotatable=0;points=[[0,0.5],[1,0.5]];portConstraint=eastwest;whiteSpace=wrap;html=1;" vertex="1" parent="5OsUXXkd6BhJ_L30GWgg-41">
          <mxGeometry y="372" width="200" height="26" as="geometry" />
        </mxCell>
        <mxCell id="5OsUXXkd6BhJ_L30GWgg-82" value="Library" style="text;strokeColor=none;fillColor=none;align=left;verticalAlign=top;spacingLeft=4;spacingRight=4;overflow=hidden;rotatable=0;points=[[0,0.5],[1,0.5]];portConstraint=eastwest;whiteSpace=wrap;html=1;" vertex="1" parent="5OsUXXkd6BhJ_L30GWgg-41">
          <mxGeometry y="398" width="200" height="26" as="geometry" />
        </mxCell>
        <mxCell id="5OsUXXkd6BhJ_L30GWgg-81" value="LoadImages" style="text;strokeColor=none;fillColor=none;align=left;verticalAlign=top;spacingLeft=4;spacingRight=4;overflow=hidden;rotatable=0;points=[[0,0.5],[1,0.5]];portConstraint=eastwest;whiteSpace=wrap;html=1;" vertex="1" parent="5OsUXXkd6BhJ_L30GWgg-41">
          <mxGeometry y="424" width="200" height="26" as="geometry" />
        </mxCell>
        <mxCell id="5OsUXXkd6BhJ_L30GWgg-241" style="edgeStyle=orthogonalEdgeStyle;rounded=0;orthogonalLoop=1;jettySize=auto;html=1;" edge="1" parent="WIyWlLk6GJQsqaUBKTNV-1" source="5OsUXXkd6BhJ_L30GWgg-61">
          <mxGeometry relative="1" as="geometry">
            <mxPoint x="570" y="-40" as="targetPoint" />
          </mxGeometry>
        </mxCell>
        <mxCell id="5OsUXXkd6BhJ_L30GWgg-61" value="MainWindowU" style="swimlane;fontStyle=1;align=center;verticalAlign=top;childLayout=stackLayout;horizontal=1;startSize=26;horizontalStack=0;resizeParent=1;resizeParentMax=0;resizeLast=0;collapsible=1;marginBottom=0;whiteSpace=wrap;html=1;" vertex="1" parent="WIyWlLk6GJQsqaUBKTNV-1">
          <mxGeometry x="480" y="50" width="200" height="270" as="geometry" />
        </mxCell>
        <mxCell id="5OsUXXkd6BhJ_L30GWgg-62" value="Поля&lt;br&gt;" style="text;strokeColor=none;fillColor=#999999;align=left;verticalAlign=top;spacingLeft=4;spacingRight=4;overflow=hidden;rotatable=0;points=[[0,0.5],[1,0.5]];portConstraint=eastwest;whiteSpace=wrap;html=1;" vertex="1" parent="5OsUXXkd6BhJ_L30GWgg-61">
          <mxGeometry y="26" width="200" height="26" as="geometry" />
        </mxCell>
        <mxCell id="5OsUXXkd6BhJ_L30GWgg-63" value="_contentLoaded" style="text;strokeColor=none;fillColor=none;align=left;verticalAlign=top;spacingLeft=4;spacingRight=4;overflow=hidden;rotatable=0;points=[[0,0.5],[1,0.5]];portConstraint=eastwest;whiteSpace=wrap;html=1;" vertex="1" parent="5OsUXXkd6BhJ_L30GWgg-61">
          <mxGeometry y="52" width="200" height="28" as="geometry" />
        </mxCell>
        <mxCell id="5OsUXXkd6BhJ_L30GWgg-67" value="" style="line;strokeWidth=1;fillColor=none;align=left;verticalAlign=middle;spacingTop=-1;spacingLeft=3;spacingRight=3;rotatable=0;labelPosition=right;points=[];portConstraint=eastwest;strokeColor=inherit;" vertex="1" parent="5OsUXXkd6BhJ_L30GWgg-61">
          <mxGeometry y="80" width="200" height="8" as="geometry" />
        </mxCell>
        <mxCell id="5OsUXXkd6BhJ_L30GWgg-68" value="Методы" style="text;strokeColor=none;fillColor=#999999;align=left;verticalAlign=top;spacingLeft=4;spacingRight=4;overflow=hidden;rotatable=0;points=[[0,0.5],[1,0.5]];portConstraint=eastwest;whiteSpace=wrap;html=1;" vertex="1" parent="5OsUXXkd6BhJ_L30GWgg-61">
          <mxGeometry y="88" width="200" height="26" as="geometry" />
        </mxCell>
        <mxCell id="5OsUXXkd6BhJ_L30GWgg-69" value="Button_Click_1" style="text;strokeColor=none;fillColor=none;align=left;verticalAlign=top;spacingLeft=4;spacingRight=4;overflow=hidden;rotatable=0;points=[[0,0.5],[1,0.5]];portConstraint=eastwest;whiteSpace=wrap;html=1;" vertex="1" parent="5OsUXXkd6BhJ_L30GWgg-61">
          <mxGeometry y="114" width="200" height="26" as="geometry" />
        </mxCell>
        <mxCell id="5OsUXXkd6BhJ_L30GWgg-70" value="Button_Click_2" style="text;strokeColor=none;fillColor=none;align=left;verticalAlign=top;spacingLeft=4;spacingRight=4;overflow=hidden;rotatable=0;points=[[0,0.5],[1,0.5]];portConstraint=eastwest;whiteSpace=wrap;html=1;" vertex="1" parent="5OsUXXkd6BhJ_L30GWgg-61">
          <mxGeometry y="140" width="200" height="26" as="geometry" />
        </mxCell>
        <mxCell id="5OsUXXkd6BhJ_L30GWgg-71" value="Button_Click" style="text;strokeColor=none;fillColor=none;align=left;verticalAlign=top;spacingLeft=4;spacingRight=4;overflow=hidden;rotatable=0;points=[[0,0.5],[1,0.5]];portConstraint=eastwest;whiteSpace=wrap;html=1;" vertex="1" parent="5OsUXXkd6BhJ_L30GWgg-61">
          <mxGeometry y="166" width="200" height="26" as="geometry" />
        </mxCell>
        <mxCell id="5OsUXXkd6BhJ_L30GWgg-72" value="IComponentConnector.Connect" style="text;strokeColor=none;fillColor=none;align=left;verticalAlign=top;spacingLeft=4;spacingRight=4;overflow=hidden;rotatable=0;points=[[0,0.5],[1,0.5]];portConstraint=eastwest;whiteSpace=wrap;html=1;" vertex="1" parent="5OsUXXkd6BhJ_L30GWgg-61">
          <mxGeometry y="192" width="200" height="26" as="geometry" />
        </mxCell>
        <mxCell id="5OsUXXkd6BhJ_L30GWgg-73" value="InitializeComponent" style="text;strokeColor=none;fillColor=none;align=left;verticalAlign=top;spacingLeft=4;spacingRight=4;overflow=hidden;rotatable=0;points=[[0,0.5],[1,0.5]];portConstraint=eastwest;whiteSpace=wrap;html=1;" vertex="1" parent="5OsUXXkd6BhJ_L30GWgg-61">
          <mxGeometry y="218" width="200" height="26" as="geometry" />
        </mxCell>
        <mxCell id="5OsUXXkd6BhJ_L30GWgg-74" value="MainWindowU" style="text;strokeColor=none;fillColor=none;align=left;verticalAlign=top;spacingLeft=4;spacingRight=4;overflow=hidden;rotatable=0;points=[[0,0.5],[1,0.5]];portConstraint=eastwest;whiteSpace=wrap;html=1;" vertex="1" parent="5OsUXXkd6BhJ_L30GWgg-61">
          <mxGeometry y="244" width="200" height="26" as="geometry" />
        </mxCell>
        <mxCell id="5OsUXXkd6BhJ_L30GWgg-240" style="edgeStyle=orthogonalEdgeStyle;rounded=0;orthogonalLoop=1;jettySize=auto;html=1;" edge="1" parent="WIyWlLk6GJQsqaUBKTNV-1" source="5OsUXXkd6BhJ_L30GWgg-86">
          <mxGeometry relative="1" as="geometry">
            <mxPoint x="1060" y="-40" as="targetPoint" />
          </mxGeometry>
        </mxCell>
        <mxCell id="5OsUXXkd6BhJ_L30GWgg-86" value="View_Image1" style="swimlane;fontStyle=1;align=center;verticalAlign=top;childLayout=stackLayout;horizontal=1;startSize=26;horizontalStack=0;resizeParent=1;resizeParentMax=0;resizeLast=0;collapsible=1;marginBottom=0;whiteSpace=wrap;html=1;" vertex="1" parent="WIyWlLk6GJQsqaUBKTNV-1">
          <mxGeometry x="960" y="50" width="200" height="632" as="geometry" />
        </mxCell>
        <mxCell id="5OsUXXkd6BhJ_L30GWgg-87" value="Поля&lt;br&gt;" style="text;strokeColor=none;fillColor=#999999;align=left;verticalAlign=top;spacingLeft=4;spacingRight=4;overflow=hidden;rotatable=0;points=[[0,0.5],[1,0.5]];portConstraint=eastwest;whiteSpace=wrap;html=1;" vertex="1" parent="5OsUXXkd6BhJ_L30GWgg-86">
          <mxGeometry y="26" width="200" height="26" as="geometry" />
        </mxCell>
        <mxCell id="5OsUXXkd6BhJ_L30GWgg-88" value="Game_age" style="text;strokeColor=none;fillColor=none;align=left;verticalAlign=top;spacingLeft=4;spacingRight=4;overflow=hidden;rotatable=0;points=[[0,0.5],[1,0.5]];portConstraint=eastwest;whiteSpace=wrap;html=1;" vertex="1" parent="5OsUXXkd6BhJ_L30GWgg-86">
          <mxGeometry y="52" width="200" height="26" as="geometry" />
        </mxCell>
        <mxCell id="5OsUXXkd6BhJ_L30GWgg-89" value="Game_description" style="text;strokeColor=none;fillColor=none;align=left;verticalAlign=top;spacingLeft=4;spacingRight=4;overflow=hidden;rotatable=0;points=[[0,0.5],[1,0.5]];portConstraint=eastwest;whiteSpace=wrap;html=1;" vertex="1" parent="5OsUXXkd6BhJ_L30GWgg-86">
          <mxGeometry y="78" width="200" height="26" as="geometry" />
        </mxCell>
        <mxCell id="5OsUXXkd6BhJ_L30GWgg-90" value="Game_genre" style="text;strokeColor=none;fillColor=none;align=left;verticalAlign=top;spacingLeft=4;spacingRight=4;overflow=hidden;rotatable=0;points=[[0,0.5],[1,0.5]];portConstraint=eastwest;whiteSpace=wrap;html=1;" vertex="1" parent="5OsUXXkd6BhJ_L30GWgg-86">
          <mxGeometry y="104" width="200" height="26" as="geometry" />
        </mxCell>
        <mxCell id="5OsUXXkd6BhJ_L30GWgg-91" value="Game_logo" style="text;strokeColor=none;fillColor=none;align=left;verticalAlign=top;spacingLeft=4;spacingRight=4;overflow=hidden;rotatable=0;points=[[0,0.5],[1,0.5]];portConstraint=eastwest;whiteSpace=wrap;html=1;" vertex="1" parent="5OsUXXkd6BhJ_L30GWgg-86">
          <mxGeometry y="130" width="200" height="26" as="geometry" />
        </mxCell>
        <mxCell id="5OsUXXkd6BhJ_L30GWgg-92" value="Game_name" style="text;strokeColor=none;fillColor=none;align=left;verticalAlign=top;spacingLeft=4;spacingRight=4;overflow=hidden;rotatable=0;points=[[0,0.5],[1,0.5]];portConstraint=eastwest;whiteSpace=wrap;html=1;" vertex="1" parent="5OsUXXkd6BhJ_L30GWgg-86">
          <mxGeometry y="156" width="200" height="26" as="geometry" />
        </mxCell>
        <mxCell id="5OsUXXkd6BhJ_L30GWgg-93" value="Z1" style="text;strokeColor=none;fillColor=none;align=left;verticalAlign=top;spacingLeft=4;spacingRight=4;overflow=hidden;rotatable=0;points=[[0,0.5],[1,0.5]];portConstraint=eastwest;whiteSpace=wrap;html=1;" vertex="1" parent="5OsUXXkd6BhJ_L30GWgg-86">
          <mxGeometry y="182" width="200" height="26" as="geometry" />
        </mxCell>
        <mxCell id="5OsUXXkd6BhJ_L30GWgg-94" value="_contentLoaded" style="text;strokeColor=none;fillColor=none;align=left;verticalAlign=top;spacingLeft=4;spacingRight=4;overflow=hidden;rotatable=0;points=[[0,0.5],[1,0.5]];portConstraint=eastwest;whiteSpace=wrap;html=1;" vertex="1" parent="5OsUXXkd6BhJ_L30GWgg-86">
          <mxGeometry y="208" width="200" height="26" as="geometry" />
        </mxCell>
        <mxCell id="5OsUXXkd6BhJ_L30GWgg-110" value="Z1_Image" style="text;strokeColor=none;fillColor=none;align=left;verticalAlign=top;spacingLeft=4;spacingRight=4;overflow=hidden;rotatable=0;points=[[0,0.5],[1,0.5]];portConstraint=eastwest;whiteSpace=wrap;html=1;" vertex="1" parent="5OsUXXkd6BhJ_L30GWgg-86">
          <mxGeometry y="234" width="200" height="26" as="geometry" />
        </mxCell>
        <mxCell id="5OsUXXkd6BhJ_L30GWgg-109" value="Z2" style="text;strokeColor=none;fillColor=none;align=left;verticalAlign=top;spacingLeft=4;spacingRight=4;overflow=hidden;rotatable=0;points=[[0,0.5],[1,0.5]];portConstraint=eastwest;whiteSpace=wrap;html=1;" vertex="1" parent="5OsUXXkd6BhJ_L30GWgg-86">
          <mxGeometry y="260" width="200" height="26" as="geometry" />
        </mxCell>
        <mxCell id="5OsUXXkd6BhJ_L30GWgg-108" value="Z2_Image" style="text;strokeColor=none;fillColor=none;align=left;verticalAlign=top;spacingLeft=4;spacingRight=4;overflow=hidden;rotatable=0;points=[[0,0.5],[1,0.5]];portConstraint=eastwest;whiteSpace=wrap;html=1;" vertex="1" parent="5OsUXXkd6BhJ_L30GWgg-86">
          <mxGeometry y="286" width="200" height="26" as="geometry" />
        </mxCell>
        <mxCell id="5OsUXXkd6BhJ_L30GWgg-107" value="Z3" style="text;strokeColor=none;fillColor=none;align=left;verticalAlign=top;spacingLeft=4;spacingRight=4;overflow=hidden;rotatable=0;points=[[0,0.5],[1,0.5]];portConstraint=eastwest;whiteSpace=wrap;html=1;" vertex="1" parent="5OsUXXkd6BhJ_L30GWgg-86">
          <mxGeometry y="312" width="200" height="26" as="geometry" />
        </mxCell>
        <mxCell id="5OsUXXkd6BhJ_L30GWgg-106" value="Z3_Image" style="text;strokeColor=none;fillColor=none;align=left;verticalAlign=top;spacingLeft=4;spacingRight=4;overflow=hidden;rotatable=0;points=[[0,0.5],[1,0.5]];portConstraint=eastwest;whiteSpace=wrap;html=1;" vertex="1" parent="5OsUXXkd6BhJ_L30GWgg-86">
          <mxGeometry y="338" width="200" height="26" as="geometry" />
        </mxCell>
        <mxCell id="5OsUXXkd6BhJ_L30GWgg-105" value="Z4" style="text;strokeColor=none;fillColor=none;align=left;verticalAlign=top;spacingLeft=4;spacingRight=4;overflow=hidden;rotatable=0;points=[[0,0.5],[1,0.5]];portConstraint=eastwest;whiteSpace=wrap;html=1;" vertex="1" parent="5OsUXXkd6BhJ_L30GWgg-86">
          <mxGeometry y="364" width="200" height="26" as="geometry" />
        </mxCell>
        <mxCell id="5OsUXXkd6BhJ_L30GWgg-104" value="Z4_Image" style="text;strokeColor=none;fillColor=none;align=left;verticalAlign=top;spacingLeft=4;spacingRight=4;overflow=hidden;rotatable=0;points=[[0,0.5],[1,0.5]];portConstraint=eastwest;whiteSpace=wrap;html=1;" vertex="1" parent="5OsUXXkd6BhJ_L30GWgg-86">
          <mxGeometry y="390" width="200" height="26" as="geometry" />
        </mxCell>
        <mxCell id="5OsUXXkd6BhJ_L30GWgg-95" value="" style="line;strokeWidth=1;fillColor=none;align=left;verticalAlign=middle;spacingTop=-1;spacingLeft=3;spacingRight=3;rotatable=0;labelPosition=right;points=[];portConstraint=eastwest;strokeColor=inherit;" vertex="1" parent="5OsUXXkd6BhJ_L30GWgg-86">
          <mxGeometry y="416" width="200" height="8" as="geometry" />
        </mxCell>
        <mxCell id="5OsUXXkd6BhJ_L30GWgg-96" value="Методы" style="text;strokeColor=none;fillColor=#999999;align=left;verticalAlign=top;spacingLeft=4;spacingRight=4;overflow=hidden;rotatable=0;points=[[0,0.5],[1,0.5]];portConstraint=eastwest;whiteSpace=wrap;html=1;" vertex="1" parent="5OsUXXkd6BhJ_L30GWgg-86">
          <mxGeometry y="424" width="200" height="26" as="geometry" />
        </mxCell>
        <mxCell id="5OsUXXkd6BhJ_L30GWgg-97" value="Button_Click" style="text;strokeColor=none;fillColor=none;align=left;verticalAlign=top;spacingLeft=4;spacingRight=4;overflow=hidden;rotatable=0;points=[[0,0.5],[1,0.5]];portConstraint=eastwest;whiteSpace=wrap;html=1;" vertex="1" parent="5OsUXXkd6BhJ_L30GWgg-86">
          <mxGeometry y="450" width="200" height="26" as="geometry" />
        </mxCell>
        <mxCell id="5OsUXXkd6BhJ_L30GWgg-98" value="IComponentConnector.Connect" style="text;strokeColor=none;fillColor=none;align=left;verticalAlign=top;spacingLeft=4;spacingRight=4;overflow=hidden;rotatable=0;points=[[0,0.5],[1,0.5]];portConstraint=eastwest;whiteSpace=wrap;html=1;" vertex="1" parent="5OsUXXkd6BhJ_L30GWgg-86">
          <mxGeometry y="476" width="200" height="26" as="geometry" />
        </mxCell>
        <mxCell id="5OsUXXkd6BhJ_L30GWgg-99" value="Image_MouseLeftButtonDown" style="text;strokeColor=none;fillColor=none;align=left;verticalAlign=top;spacingLeft=4;spacingRight=4;overflow=hidden;rotatable=0;points=[[0,0.5],[1,0.5]];portConstraint=eastwest;whiteSpace=wrap;html=1;" vertex="1" parent="5OsUXXkd6BhJ_L30GWgg-86">
          <mxGeometry y="502" width="200" height="26" as="geometry" />
        </mxCell>
        <mxCell id="5OsUXXkd6BhJ_L30GWgg-100" value="InitializeComponent" style="text;strokeColor=none;fillColor=none;align=left;verticalAlign=top;spacingLeft=4;spacingRight=4;overflow=hidden;rotatable=0;points=[[0,0.5],[1,0.5]];portConstraint=eastwest;whiteSpace=wrap;html=1;" vertex="1" parent="5OsUXXkd6BhJ_L30GWgg-86">
          <mxGeometry y="528" width="200" height="26" as="geometry" />
        </mxCell>
        <mxCell id="5OsUXXkd6BhJ_L30GWgg-101" value="Library_Loaded" style="text;strokeColor=none;fillColor=none;align=left;verticalAlign=top;spacingLeft=4;spacingRight=4;overflow=hidden;rotatable=0;points=[[0,0.5],[1,0.5]];portConstraint=eastwest;whiteSpace=wrap;html=1;" vertex="1" parent="5OsUXXkd6BhJ_L30GWgg-86">
          <mxGeometry y="554" width="200" height="26" as="geometry" />
        </mxCell>
        <mxCell id="5OsUXXkd6BhJ_L30GWgg-102" value="Library" style="text;strokeColor=none;fillColor=none;align=left;verticalAlign=top;spacingLeft=4;spacingRight=4;overflow=hidden;rotatable=0;points=[[0,0.5],[1,0.5]];portConstraint=eastwest;whiteSpace=wrap;html=1;" vertex="1" parent="5OsUXXkd6BhJ_L30GWgg-86">
          <mxGeometry y="580" width="200" height="26" as="geometry" />
        </mxCell>
        <mxCell id="5OsUXXkd6BhJ_L30GWgg-103" value="LoadImages" style="text;strokeColor=none;fillColor=none;align=left;verticalAlign=top;spacingLeft=4;spacingRight=4;overflow=hidden;rotatable=0;points=[[0,0.5],[1,0.5]];portConstraint=eastwest;whiteSpace=wrap;html=1;" vertex="1" parent="5OsUXXkd6BhJ_L30GWgg-86">
          <mxGeometry y="606" width="200" height="26" as="geometry" />
        </mxCell>
        <mxCell id="5OsUXXkd6BhJ_L30GWgg-239" style="edgeStyle=orthogonalEdgeStyle;rounded=0;orthogonalLoop=1;jettySize=auto;html=1;" edge="1" parent="WIyWlLk6GJQsqaUBKTNV-1" source="5OsUXXkd6BhJ_L30GWgg-111">
          <mxGeometry relative="1" as="geometry">
            <mxPoint x="1300" y="-40" as="targetPoint" />
          </mxGeometry>
        </mxCell>
        <mxCell id="5OsUXXkd6BhJ_L30GWgg-111" value="AdminMainWindow" style="swimlane;fontStyle=1;align=center;verticalAlign=top;childLayout=stackLayout;horizontal=1;startSize=26;horizontalStack=0;resizeParent=1;resizeParentMax=0;resizeLast=0;collapsible=1;marginBottom=0;whiteSpace=wrap;html=1;" vertex="1" parent="WIyWlLk6GJQsqaUBKTNV-1">
          <mxGeometry x="1200" y="50" width="200" height="270" as="geometry" />
        </mxCell>
        <mxCell id="5OsUXXkd6BhJ_L30GWgg-112" value="Поля&lt;br&gt;" style="text;strokeColor=none;fillColor=#999999;align=left;verticalAlign=top;spacingLeft=4;spacingRight=4;overflow=hidden;rotatable=0;points=[[0,0.5],[1,0.5]];portConstraint=eastwest;whiteSpace=wrap;html=1;" vertex="1" parent="5OsUXXkd6BhJ_L30GWgg-111">
          <mxGeometry y="26" width="200" height="26" as="geometry" />
        </mxCell>
        <mxCell id="5OsUXXkd6BhJ_L30GWgg-113" value="_contentLoaded" style="text;strokeColor=none;fillColor=none;align=left;verticalAlign=top;spacingLeft=4;spacingRight=4;overflow=hidden;rotatable=0;points=[[0,0.5],[1,0.5]];portConstraint=eastwest;whiteSpace=wrap;html=1;" vertex="1" parent="5OsUXXkd6BhJ_L30GWgg-111">
          <mxGeometry y="52" width="200" height="28" as="geometry" />
        </mxCell>
        <mxCell id="5OsUXXkd6BhJ_L30GWgg-114" value="" style="line;strokeWidth=1;fillColor=none;align=left;verticalAlign=middle;spacingTop=-1;spacingLeft=3;spacingRight=3;rotatable=0;labelPosition=right;points=[];portConstraint=eastwest;strokeColor=inherit;" vertex="1" parent="5OsUXXkd6BhJ_L30GWgg-111">
          <mxGeometry y="80" width="200" height="8" as="geometry" />
        </mxCell>
        <mxCell id="5OsUXXkd6BhJ_L30GWgg-115" value="Методы" style="text;strokeColor=none;fillColor=#999999;align=left;verticalAlign=top;spacingLeft=4;spacingRight=4;overflow=hidden;rotatable=0;points=[[0,0.5],[1,0.5]];portConstraint=eastwest;whiteSpace=wrap;html=1;" vertex="1" parent="5OsUXXkd6BhJ_L30GWgg-111">
          <mxGeometry y="88" width="200" height="26" as="geometry" />
        </mxCell>
        <mxCell id="5OsUXXkd6BhJ_L30GWgg-116" value="Button_Click_1" style="text;strokeColor=none;fillColor=none;align=left;verticalAlign=top;spacingLeft=4;spacingRight=4;overflow=hidden;rotatable=0;points=[[0,0.5],[1,0.5]];portConstraint=eastwest;whiteSpace=wrap;html=1;" vertex="1" parent="5OsUXXkd6BhJ_L30GWgg-111">
          <mxGeometry y="114" width="200" height="26" as="geometry" />
        </mxCell>
        <mxCell id="5OsUXXkd6BhJ_L30GWgg-117" value="Button_Click_2" style="text;strokeColor=none;fillColor=none;align=left;verticalAlign=top;spacingLeft=4;spacingRight=4;overflow=hidden;rotatable=0;points=[[0,0.5],[1,0.5]];portConstraint=eastwest;whiteSpace=wrap;html=1;" vertex="1" parent="5OsUXXkd6BhJ_L30GWgg-111">
          <mxGeometry y="140" width="200" height="26" as="geometry" />
        </mxCell>
        <mxCell id="5OsUXXkd6BhJ_L30GWgg-118" value="Button_Click" style="text;strokeColor=none;fillColor=none;align=left;verticalAlign=top;spacingLeft=4;spacingRight=4;overflow=hidden;rotatable=0;points=[[0,0.5],[1,0.5]];portConstraint=eastwest;whiteSpace=wrap;html=1;" vertex="1" parent="5OsUXXkd6BhJ_L30GWgg-111">
          <mxGeometry y="166" width="200" height="26" as="geometry" />
        </mxCell>
        <mxCell id="5OsUXXkd6BhJ_L30GWgg-119" value="IComponentConnector.Connect" style="text;strokeColor=none;fillColor=none;align=left;verticalAlign=top;spacingLeft=4;spacingRight=4;overflow=hidden;rotatable=0;points=[[0,0.5],[1,0.5]];portConstraint=eastwest;whiteSpace=wrap;html=1;" vertex="1" parent="5OsUXXkd6BhJ_L30GWgg-111">
          <mxGeometry y="192" width="200" height="26" as="geometry" />
        </mxCell>
        <mxCell id="5OsUXXkd6BhJ_L30GWgg-120" value="InitializeComponent" style="text;strokeColor=none;fillColor=none;align=left;verticalAlign=top;spacingLeft=4;spacingRight=4;overflow=hidden;rotatable=0;points=[[0,0.5],[1,0.5]];portConstraint=eastwest;whiteSpace=wrap;html=1;" vertex="1" parent="5OsUXXkd6BhJ_L30GWgg-111">
          <mxGeometry y="218" width="200" height="26" as="geometry" />
        </mxCell>
        <mxCell id="5OsUXXkd6BhJ_L30GWgg-121" value="AdminMainWindow" style="text;strokeColor=none;fillColor=none;align=left;verticalAlign=top;spacingLeft=4;spacingRight=4;overflow=hidden;rotatable=0;points=[[0,0.5],[1,0.5]];portConstraint=eastwest;whiteSpace=wrap;html=1;" vertex="1" parent="5OsUXXkd6BhJ_L30GWgg-111">
          <mxGeometry y="244" width="200" height="26" as="geometry" />
        </mxCell>
        <mxCell id="5OsUXXkd6BhJ_L30GWgg-238" style="edgeStyle=orthogonalEdgeStyle;rounded=0;orthogonalLoop=1;jettySize=auto;html=1;" edge="1" parent="WIyWlLk6GJQsqaUBKTNV-1" source="5OsUXXkd6BhJ_L30GWgg-122">
          <mxGeometry relative="1" as="geometry">
            <mxPoint x="1530" y="-40" as="targetPoint" />
          </mxGeometry>
        </mxCell>
        <mxCell id="5OsUXXkd6BhJ_L30GWgg-122" value="AdminLib" style="swimlane;fontStyle=1;align=center;verticalAlign=top;childLayout=stackLayout;horizontal=1;startSize=26;horizontalStack=0;resizeParent=1;resizeParentMax=0;resizeLast=0;collapsible=1;marginBottom=0;whiteSpace=wrap;html=1;" vertex="1" parent="WIyWlLk6GJQsqaUBKTNV-1">
          <mxGeometry x="1440" y="50" width="200" height="502" as="geometry" />
        </mxCell>
        <mxCell id="5OsUXXkd6BhJ_L30GWgg-123" value="Поля&lt;br&gt;" style="text;strokeColor=none;fillColor=#999999;align=left;verticalAlign=top;spacingLeft=4;spacingRight=4;overflow=hidden;rotatable=0;points=[[0,0.5],[1,0.5]];portConstraint=eastwest;whiteSpace=wrap;html=1;" vertex="1" parent="5OsUXXkd6BhJ_L30GWgg-122">
          <mxGeometry y="26" width="200" height="26" as="geometry" />
        </mxCell>
        <mxCell id="5OsUXXkd6BhJ_L30GWgg-124" value="MyImage1" style="text;strokeColor=none;fillColor=none;align=left;verticalAlign=top;spacingLeft=4;spacingRight=4;overflow=hidden;rotatable=0;points=[[0,0.5],[1,0.5]];portConstraint=eastwest;whiteSpace=wrap;html=1;" vertex="1" parent="5OsUXXkd6BhJ_L30GWgg-122">
          <mxGeometry y="52" width="200" height="26" as="geometry" />
        </mxCell>
        <mxCell id="5OsUXXkd6BhJ_L30GWgg-125" value="MyImage2" style="text;strokeColor=none;fillColor=none;align=left;verticalAlign=top;spacingLeft=4;spacingRight=4;overflow=hidden;rotatable=0;points=[[0,0.5],[1,0.5]];portConstraint=eastwest;whiteSpace=wrap;html=1;" vertex="1" parent="5OsUXXkd6BhJ_L30GWgg-122">
          <mxGeometry y="78" width="200" height="26" as="geometry" />
        </mxCell>
        <mxCell id="5OsUXXkd6BhJ_L30GWgg-126" value="MyImage3" style="text;strokeColor=none;fillColor=none;align=left;verticalAlign=top;spacingLeft=4;spacingRight=4;overflow=hidden;rotatable=0;points=[[0,0.5],[1,0.5]];portConstraint=eastwest;whiteSpace=wrap;html=1;" vertex="1" parent="5OsUXXkd6BhJ_L30GWgg-122">
          <mxGeometry y="104" width="200" height="26" as="geometry" />
        </mxCell>
        <mxCell id="5OsUXXkd6BhJ_L30GWgg-127" value="MyImage4" style="text;strokeColor=none;fillColor=none;align=left;verticalAlign=top;spacingLeft=4;spacingRight=4;overflow=hidden;rotatable=0;points=[[0,0.5],[1,0.5]];portConstraint=eastwest;whiteSpace=wrap;html=1;" vertex="1" parent="5OsUXXkd6BhJ_L30GWgg-122">
          <mxGeometry y="130" width="200" height="26" as="geometry" />
        </mxCell>
        <mxCell id="5OsUXXkd6BhJ_L30GWgg-128" value="MyImage5" style="text;strokeColor=none;fillColor=none;align=left;verticalAlign=top;spacingLeft=4;spacingRight=4;overflow=hidden;rotatable=0;points=[[0,0.5],[1,0.5]];portConstraint=eastwest;whiteSpace=wrap;html=1;" vertex="1" parent="5OsUXXkd6BhJ_L30GWgg-122">
          <mxGeometry y="156" width="200" height="26" as="geometry" />
        </mxCell>
        <mxCell id="5OsUXXkd6BhJ_L30GWgg-129" value="MyImage6" style="text;strokeColor=none;fillColor=none;align=left;verticalAlign=top;spacingLeft=4;spacingRight=4;overflow=hidden;rotatable=0;points=[[0,0.5],[1,0.5]];portConstraint=eastwest;whiteSpace=wrap;html=1;" vertex="1" parent="5OsUXXkd6BhJ_L30GWgg-122">
          <mxGeometry y="182" width="200" height="26" as="geometry" />
        </mxCell>
        <mxCell id="5OsUXXkd6BhJ_L30GWgg-130" value="_contentLoaded" style="text;strokeColor=none;fillColor=none;align=left;verticalAlign=top;spacingLeft=4;spacingRight=4;overflow=hidden;rotatable=0;points=[[0,0.5],[1,0.5]];portConstraint=eastwest;whiteSpace=wrap;html=1;" vertex="1" parent="5OsUXXkd6BhJ_L30GWgg-122">
          <mxGeometry y="208" width="200" height="26" as="geometry" />
        </mxCell>
        <mxCell id="5OsUXXkd6BhJ_L30GWgg-131" value="" style="line;strokeWidth=1;fillColor=none;align=left;verticalAlign=middle;spacingTop=-1;spacingLeft=3;spacingRight=3;rotatable=0;labelPosition=right;points=[];portConstraint=eastwest;strokeColor=inherit;" vertex="1" parent="5OsUXXkd6BhJ_L30GWgg-122">
          <mxGeometry y="234" width="200" height="8" as="geometry" />
        </mxCell>
        <mxCell id="5OsUXXkd6BhJ_L30GWgg-132" value="Методы" style="text;strokeColor=none;fillColor=#999999;align=left;verticalAlign=top;spacingLeft=4;spacingRight=4;overflow=hidden;rotatable=0;points=[[0,0.5],[1,0.5]];portConstraint=eastwest;whiteSpace=wrap;html=1;" vertex="1" parent="5OsUXXkd6BhJ_L30GWgg-122">
          <mxGeometry y="242" width="200" height="26" as="geometry" />
        </mxCell>
        <mxCell id="5OsUXXkd6BhJ_L30GWgg-133" value="Button_Click" style="text;strokeColor=none;fillColor=none;align=left;verticalAlign=top;spacingLeft=4;spacingRight=4;overflow=hidden;rotatable=0;points=[[0,0.5],[1,0.5]];portConstraint=eastwest;whiteSpace=wrap;html=1;" vertex="1" parent="5OsUXXkd6BhJ_L30GWgg-122">
          <mxGeometry y="268" width="200" height="26" as="geometry" />
        </mxCell>
        <mxCell id="5OsUXXkd6BhJ_L30GWgg-134" value="IComponentConnector.Connect" style="text;strokeColor=none;fillColor=none;align=left;verticalAlign=top;spacingLeft=4;spacingRight=4;overflow=hidden;rotatable=0;points=[[0,0.5],[1,0.5]];portConstraint=eastwest;whiteSpace=wrap;html=1;" vertex="1" parent="5OsUXXkd6BhJ_L30GWgg-122">
          <mxGeometry y="294" width="200" height="26" as="geometry" />
        </mxCell>
        <mxCell id="5OsUXXkd6BhJ_L30GWgg-135" value="Image_MouseLeftButtonDown" style="text;strokeColor=none;fillColor=none;align=left;verticalAlign=top;spacingLeft=4;spacingRight=4;overflow=hidden;rotatable=0;points=[[0,0.5],[1,0.5]];portConstraint=eastwest;whiteSpace=wrap;html=1;" vertex="1" parent="5OsUXXkd6BhJ_L30GWgg-122">
          <mxGeometry y="320" width="200" height="26" as="geometry" />
        </mxCell>
        <mxCell id="5OsUXXkd6BhJ_L30GWgg-136" value="InitializeComponent" style="text;strokeColor=none;fillColor=none;align=left;verticalAlign=top;spacingLeft=4;spacingRight=4;overflow=hidden;rotatable=0;points=[[0,0.5],[1,0.5]];portConstraint=eastwest;whiteSpace=wrap;html=1;" vertex="1" parent="5OsUXXkd6BhJ_L30GWgg-122">
          <mxGeometry y="346" width="200" height="26" as="geometry" />
        </mxCell>
        <mxCell id="5OsUXXkd6BhJ_L30GWgg-137" value="Library_Loaded" style="text;strokeColor=none;fillColor=none;align=left;verticalAlign=top;spacingLeft=4;spacingRight=4;overflow=hidden;rotatable=0;points=[[0,0.5],[1,0.5]];portConstraint=eastwest;whiteSpace=wrap;html=1;" vertex="1" parent="5OsUXXkd6BhJ_L30GWgg-122">
          <mxGeometry y="372" width="200" height="26" as="geometry" />
        </mxCell>
        <mxCell id="5OsUXXkd6BhJ_L30GWgg-139" value="LoadImages" style="text;strokeColor=none;fillColor=none;align=left;verticalAlign=top;spacingLeft=4;spacingRight=4;overflow=hidden;rotatable=0;points=[[0,0.5],[1,0.5]];portConstraint=eastwest;whiteSpace=wrap;html=1;" vertex="1" parent="5OsUXXkd6BhJ_L30GWgg-122">
          <mxGeometry y="398" width="200" height="26" as="geometry" />
        </mxCell>
        <mxCell id="5OsUXXkd6BhJ_L30GWgg-140" value="ByteArrayToImage" style="text;strokeColor=none;fillColor=none;align=left;verticalAlign=top;spacingLeft=4;spacingRight=4;overflow=hidden;rotatable=0;points=[[0,0.5],[1,0.5]];portConstraint=eastwest;whiteSpace=wrap;html=1;" vertex="1" parent="5OsUXXkd6BhJ_L30GWgg-122">
          <mxGeometry y="424" width="200" height="26" as="geometry" />
        </mxCell>
        <mxCell id="5OsUXXkd6BhJ_L30GWgg-141" value="GetImageData" style="text;strokeColor=none;fillColor=none;align=left;verticalAlign=top;spacingLeft=4;spacingRight=4;overflow=hidden;rotatable=0;points=[[0,0.5],[1,0.5]];portConstraint=eastwest;whiteSpace=wrap;html=1;" vertex="1" parent="5OsUXXkd6BhJ_L30GWgg-122">
          <mxGeometry y="450" width="200" height="26" as="geometry" />
        </mxCell>
        <mxCell id="5OsUXXkd6BhJ_L30GWgg-142" value="AdminLib" style="text;strokeColor=none;fillColor=none;align=left;verticalAlign=top;spacingLeft=4;spacingRight=4;overflow=hidden;rotatable=0;points=[[0,0.5],[1,0.5]];portConstraint=eastwest;whiteSpace=wrap;html=1;" vertex="1" parent="5OsUXXkd6BhJ_L30GWgg-122">
          <mxGeometry y="476" width="200" height="26" as="geometry" />
        </mxCell>
        <mxCell id="5OsUXXkd6BhJ_L30GWgg-237" style="edgeStyle=orthogonalEdgeStyle;rounded=0;orthogonalLoop=1;jettySize=auto;html=1;" edge="1" parent="WIyWlLk6GJQsqaUBKTNV-1" source="5OsUXXkd6BhJ_L30GWgg-143">
          <mxGeometry relative="1" as="geometry">
            <mxPoint x="1810" y="-40" as="targetPoint" />
          </mxGeometry>
        </mxCell>
        <mxCell id="5OsUXXkd6BhJ_L30GWgg-143" value="View_Admin" style="swimlane;fontStyle=1;align=center;verticalAlign=top;childLayout=stackLayout;horizontal=1;startSize=26;horizontalStack=0;resizeParent=1;resizeParentMax=0;resizeLast=0;collapsible=1;marginBottom=0;whiteSpace=wrap;html=1;" vertex="1" parent="WIyWlLk6GJQsqaUBKTNV-1">
          <mxGeometry x="1710" y="50" width="200" height="762" as="geometry" />
        </mxCell>
        <mxCell id="5OsUXXkd6BhJ_L30GWgg-144" value="Поля&lt;br&gt;" style="text;strokeColor=none;fillColor=#999999;align=left;verticalAlign=top;spacingLeft=4;spacingRight=4;overflow=hidden;rotatable=0;points=[[0,0.5],[1,0.5]];portConstraint=eastwest;whiteSpace=wrap;html=1;" vertex="1" parent="5OsUXXkd6BhJ_L30GWgg-143">
          <mxGeometry y="26" width="200" height="26" as="geometry" />
        </mxCell>
        <mxCell id="5OsUXXkd6BhJ_L30GWgg-145" value="Game_age" style="text;strokeColor=none;fillColor=none;align=left;verticalAlign=top;spacingLeft=4;spacingRight=4;overflow=hidden;rotatable=0;points=[[0,0.5],[1,0.5]];portConstraint=eastwest;whiteSpace=wrap;html=1;" vertex="1" parent="5OsUXXkd6BhJ_L30GWgg-143">
          <mxGeometry y="52" width="200" height="26" as="geometry" />
        </mxCell>
        <mxCell id="5OsUXXkd6BhJ_L30GWgg-146" value="Game_description" style="text;strokeColor=none;fillColor=none;align=left;verticalAlign=top;spacingLeft=4;spacingRight=4;overflow=hidden;rotatable=0;points=[[0,0.5],[1,0.5]];portConstraint=eastwest;whiteSpace=wrap;html=1;" vertex="1" parent="5OsUXXkd6BhJ_L30GWgg-143">
          <mxGeometry y="78" width="200" height="26" as="geometry" />
        </mxCell>
        <mxCell id="5OsUXXkd6BhJ_L30GWgg-147" value="Game_genre" style="text;strokeColor=none;fillColor=none;align=left;verticalAlign=top;spacingLeft=4;spacingRight=4;overflow=hidden;rotatable=0;points=[[0,0.5],[1,0.5]];portConstraint=eastwest;whiteSpace=wrap;html=1;" vertex="1" parent="5OsUXXkd6BhJ_L30GWgg-143">
          <mxGeometry y="104" width="200" height="26" as="geometry" />
        </mxCell>
        <mxCell id="5OsUXXkd6BhJ_L30GWgg-148" value="Game_logo" style="text;strokeColor=none;fillColor=none;align=left;verticalAlign=top;spacingLeft=4;spacingRight=4;overflow=hidden;rotatable=0;points=[[0,0.5],[1,0.5]];portConstraint=eastwest;whiteSpace=wrap;html=1;" vertex="1" parent="5OsUXXkd6BhJ_L30GWgg-143">
          <mxGeometry y="130" width="200" height="26" as="geometry" />
        </mxCell>
        <mxCell id="5OsUXXkd6BhJ_L30GWgg-149" value="Game_name" style="text;strokeColor=none;fillColor=none;align=left;verticalAlign=top;spacingLeft=4;spacingRight=4;overflow=hidden;rotatable=0;points=[[0,0.5],[1,0.5]];portConstraint=eastwest;whiteSpace=wrap;html=1;" vertex="1" parent="5OsUXXkd6BhJ_L30GWgg-143">
          <mxGeometry y="156" width="200" height="26" as="geometry" />
        </mxCell>
        <mxCell id="5OsUXXkd6BhJ_L30GWgg-150" value="Z1" style="text;strokeColor=none;fillColor=none;align=left;verticalAlign=top;spacingLeft=4;spacingRight=4;overflow=hidden;rotatable=0;points=[[0,0.5],[1,0.5]];portConstraint=eastwest;whiteSpace=wrap;html=1;" vertex="1" parent="5OsUXXkd6BhJ_L30GWgg-143">
          <mxGeometry y="182" width="200" height="26" as="geometry" />
        </mxCell>
        <mxCell id="5OsUXXkd6BhJ_L30GWgg-151" value="_contentLoaded" style="text;strokeColor=none;fillColor=none;align=left;verticalAlign=top;spacingLeft=4;spacingRight=4;overflow=hidden;rotatable=0;points=[[0,0.5],[1,0.5]];portConstraint=eastwest;whiteSpace=wrap;html=1;" vertex="1" parent="5OsUXXkd6BhJ_L30GWgg-143">
          <mxGeometry y="208" width="200" height="26" as="geometry" />
        </mxCell>
        <mxCell id="5OsUXXkd6BhJ_L30GWgg-152" value="Z1_Image" style="text;strokeColor=none;fillColor=none;align=left;verticalAlign=top;spacingLeft=4;spacingRight=4;overflow=hidden;rotatable=0;points=[[0,0.5],[1,0.5]];portConstraint=eastwest;whiteSpace=wrap;html=1;" vertex="1" parent="5OsUXXkd6BhJ_L30GWgg-143">
          <mxGeometry y="234" width="200" height="26" as="geometry" />
        </mxCell>
        <mxCell id="5OsUXXkd6BhJ_L30GWgg-153" value="Z2" style="text;strokeColor=none;fillColor=none;align=left;verticalAlign=top;spacingLeft=4;spacingRight=4;overflow=hidden;rotatable=0;points=[[0,0.5],[1,0.5]];portConstraint=eastwest;whiteSpace=wrap;html=1;" vertex="1" parent="5OsUXXkd6BhJ_L30GWgg-143">
          <mxGeometry y="260" width="200" height="26" as="geometry" />
        </mxCell>
        <mxCell id="5OsUXXkd6BhJ_L30GWgg-154" value="Z2_Image" style="text;strokeColor=none;fillColor=none;align=left;verticalAlign=top;spacingLeft=4;spacingRight=4;overflow=hidden;rotatable=0;points=[[0,0.5],[1,0.5]];portConstraint=eastwest;whiteSpace=wrap;html=1;" vertex="1" parent="5OsUXXkd6BhJ_L30GWgg-143">
          <mxGeometry y="286" width="200" height="26" as="geometry" />
        </mxCell>
        <mxCell id="5OsUXXkd6BhJ_L30GWgg-155" value="Z3" style="text;strokeColor=none;fillColor=none;align=left;verticalAlign=top;spacingLeft=4;spacingRight=4;overflow=hidden;rotatable=0;points=[[0,0.5],[1,0.5]];portConstraint=eastwest;whiteSpace=wrap;html=1;" vertex="1" parent="5OsUXXkd6BhJ_L30GWgg-143">
          <mxGeometry y="312" width="200" height="26" as="geometry" />
        </mxCell>
        <mxCell id="5OsUXXkd6BhJ_L30GWgg-156" value="Z3_Image" style="text;strokeColor=none;fillColor=none;align=left;verticalAlign=top;spacingLeft=4;spacingRight=4;overflow=hidden;rotatable=0;points=[[0,0.5],[1,0.5]];portConstraint=eastwest;whiteSpace=wrap;html=1;" vertex="1" parent="5OsUXXkd6BhJ_L30GWgg-143">
          <mxGeometry y="338" width="200" height="26" as="geometry" />
        </mxCell>
        <mxCell id="5OsUXXkd6BhJ_L30GWgg-157" value="Z4" style="text;strokeColor=none;fillColor=none;align=left;verticalAlign=top;spacingLeft=4;spacingRight=4;overflow=hidden;rotatable=0;points=[[0,0.5],[1,0.5]];portConstraint=eastwest;whiteSpace=wrap;html=1;" vertex="1" parent="5OsUXXkd6BhJ_L30GWgg-143">
          <mxGeometry y="364" width="200" height="26" as="geometry" />
        </mxCell>
        <mxCell id="5OsUXXkd6BhJ_L30GWgg-158" value="Z4_Image" style="text;strokeColor=none;fillColor=none;align=left;verticalAlign=top;spacingLeft=4;spacingRight=4;overflow=hidden;rotatable=0;points=[[0,0.5],[1,0.5]];portConstraint=eastwest;whiteSpace=wrap;html=1;" vertex="1" parent="5OsUXXkd6BhJ_L30GWgg-143">
          <mxGeometry y="390" width="200" height="26" as="geometry" />
        </mxCell>
        <mxCell id="5OsUXXkd6BhJ_L30GWgg-159" value="" style="line;strokeWidth=1;fillColor=none;align=left;verticalAlign=middle;spacingTop=-1;spacingLeft=3;spacingRight=3;rotatable=0;labelPosition=right;points=[];portConstraint=eastwest;strokeColor=inherit;" vertex="1" parent="5OsUXXkd6BhJ_L30GWgg-143">
          <mxGeometry y="416" width="200" height="8" as="geometry" />
        </mxCell>
        <mxCell id="5OsUXXkd6BhJ_L30GWgg-160" value="Методы" style="text;strokeColor=none;fillColor=#999999;align=left;verticalAlign=top;spacingLeft=4;spacingRight=4;overflow=hidden;rotatable=0;points=[[0,0.5],[1,0.5]];portConstraint=eastwest;whiteSpace=wrap;html=1;" vertex="1" parent="5OsUXXkd6BhJ_L30GWgg-143">
          <mxGeometry y="424" width="200" height="26" as="geometry" />
        </mxCell>
        <mxCell id="5OsUXXkd6BhJ_L30GWgg-161" value="Button_Click" style="text;strokeColor=none;fillColor=none;align=left;verticalAlign=top;spacingLeft=4;spacingRight=4;overflow=hidden;rotatable=0;points=[[0,0.5],[1,0.5]];portConstraint=eastwest;whiteSpace=wrap;html=1;" vertex="1" parent="5OsUXXkd6BhJ_L30GWgg-143">
          <mxGeometry y="450" width="200" height="26" as="geometry" />
        </mxCell>
        <mxCell id="5OsUXXkd6BhJ_L30GWgg-162" value="IComponentConnector.Connect" style="text;strokeColor=none;fillColor=none;align=left;verticalAlign=top;spacingLeft=4;spacingRight=4;overflow=hidden;rotatable=0;points=[[0,0.5],[1,0.5]];portConstraint=eastwest;whiteSpace=wrap;html=1;" vertex="1" parent="5OsUXXkd6BhJ_L30GWgg-143">
          <mxGeometry y="476" width="200" height="26" as="geometry" />
        </mxCell>
        <mxCell id="5OsUXXkd6BhJ_L30GWgg-163" value="Image_MouseLeftButtonDown" style="text;strokeColor=none;fillColor=none;align=left;verticalAlign=top;spacingLeft=4;spacingRight=4;overflow=hidden;rotatable=0;points=[[0,0.5],[1,0.5]];portConstraint=eastwest;whiteSpace=wrap;html=1;" vertex="1" parent="5OsUXXkd6BhJ_L30GWgg-143">
          <mxGeometry y="502" width="200" height="26" as="geometry" />
        </mxCell>
        <mxCell id="5OsUXXkd6BhJ_L30GWgg-164" value="InitializeComponent" style="text;strokeColor=none;fillColor=none;align=left;verticalAlign=top;spacingLeft=4;spacingRight=4;overflow=hidden;rotatable=0;points=[[0,0.5],[1,0.5]];portConstraint=eastwest;whiteSpace=wrap;html=1;" vertex="1" parent="5OsUXXkd6BhJ_L30GWgg-143">
          <mxGeometry y="528" width="200" height="26" as="geometry" />
        </mxCell>
        <mxCell id="5OsUXXkd6BhJ_L30GWgg-165" value="Library_Loaded" style="text;strokeColor=none;fillColor=none;align=left;verticalAlign=top;spacingLeft=4;spacingRight=4;overflow=hidden;rotatable=0;points=[[0,0.5],[1,0.5]];portConstraint=eastwest;whiteSpace=wrap;html=1;" vertex="1" parent="5OsUXXkd6BhJ_L30GWgg-143">
          <mxGeometry y="554" width="200" height="26" as="geometry" />
        </mxCell>
        <mxCell id="5OsUXXkd6BhJ_L30GWgg-166" value="ViewAdmin" style="text;strokeColor=none;fillColor=none;align=left;verticalAlign=top;spacingLeft=4;spacingRight=4;overflow=hidden;rotatable=0;points=[[0,0.5],[1,0.5]];portConstraint=eastwest;whiteSpace=wrap;html=1;" vertex="1" parent="5OsUXXkd6BhJ_L30GWgg-143">
          <mxGeometry y="580" width="200" height="26" as="geometry" />
        </mxCell>
        <mxCell id="5OsUXXkd6BhJ_L30GWgg-167" value="LoadImages" style="text;strokeColor=none;fillColor=none;align=left;verticalAlign=top;spacingLeft=4;spacingRight=4;overflow=hidden;rotatable=0;points=[[0,0.5],[1,0.5]];portConstraint=eastwest;whiteSpace=wrap;html=1;" vertex="1" parent="5OsUXXkd6BhJ_L30GWgg-143">
          <mxGeometry y="606" width="200" height="26" as="geometry" />
        </mxCell>
        <mxCell id="5OsUXXkd6BhJ_L30GWgg-168" value="ByteArrayToImage" style="text;strokeColor=none;fillColor=none;align=left;verticalAlign=top;spacingLeft=4;spacingRight=4;overflow=hidden;rotatable=0;points=[[0,0.5],[1,0.5]];portConstraint=eastwest;whiteSpace=wrap;html=1;" vertex="1" parent="5OsUXXkd6BhJ_L30GWgg-143">
          <mxGeometry y="632" width="200" height="26" as="geometry" />
        </mxCell>
        <mxCell id="5OsUXXkd6BhJ_L30GWgg-169" value="Z1_Click" style="text;strokeColor=none;fillColor=none;align=left;verticalAlign=top;spacingLeft=4;spacingRight=4;overflow=hidden;rotatable=0;points=[[0,0.5],[1,0.5]];portConstraint=eastwest;whiteSpace=wrap;html=1;" vertex="1" parent="5OsUXXkd6BhJ_L30GWgg-143">
          <mxGeometry y="658" width="200" height="26" as="geometry" />
        </mxCell>
        <mxCell id="5OsUXXkd6BhJ_L30GWgg-172" value="Z2_Click" style="text;strokeColor=none;fillColor=none;align=left;verticalAlign=top;spacingLeft=4;spacingRight=4;overflow=hidden;rotatable=0;points=[[0,0.5],[1,0.5]];portConstraint=eastwest;whiteSpace=wrap;html=1;" vertex="1" parent="5OsUXXkd6BhJ_L30GWgg-143">
          <mxGeometry y="684" width="200" height="26" as="geometry" />
        </mxCell>
        <mxCell id="5OsUXXkd6BhJ_L30GWgg-171" value="Z3_Click" style="text;strokeColor=none;fillColor=none;align=left;verticalAlign=top;spacingLeft=4;spacingRight=4;overflow=hidden;rotatable=0;points=[[0,0.5],[1,0.5]];portConstraint=eastwest;whiteSpace=wrap;html=1;" vertex="1" parent="5OsUXXkd6BhJ_L30GWgg-143">
          <mxGeometry y="710" width="200" height="26" as="geometry" />
        </mxCell>
        <mxCell id="5OsUXXkd6BhJ_L30GWgg-170" value="Z4_Click" style="text;strokeColor=none;fillColor=none;align=left;verticalAlign=top;spacingLeft=4;spacingRight=4;overflow=hidden;rotatable=0;points=[[0,0.5],[1,0.5]];portConstraint=eastwest;whiteSpace=wrap;html=1;" vertex="1" parent="5OsUXXkd6BhJ_L30GWgg-143">
          <mxGeometry y="736" width="200" height="26" as="geometry" />
        </mxCell>
        <mxCell id="5OsUXXkd6BhJ_L30GWgg-236" style="edgeStyle=orthogonalEdgeStyle;rounded=0;orthogonalLoop=1;jettySize=auto;html=1;" edge="1" parent="WIyWlLk6GJQsqaUBKTNV-1" source="5OsUXXkd6BhJ_L30GWgg-173">
          <mxGeometry relative="1" as="geometry">
            <mxPoint x="2040" y="-40" as="targetPoint" />
          </mxGeometry>
        </mxCell>
        <mxCell id="5OsUXXkd6BhJ_L30GWgg-173" value="MainWindowA" style="swimlane;fontStyle=1;align=center;verticalAlign=top;childLayout=stackLayout;horizontal=1;startSize=26;horizontalStack=0;resizeParent=1;resizeParentMax=0;resizeLast=0;collapsible=1;marginBottom=0;whiteSpace=wrap;html=1;" vertex="1" parent="WIyWlLk6GJQsqaUBKTNV-1">
          <mxGeometry x="1950" y="50" width="200" height="632" as="geometry" />
        </mxCell>
        <mxCell id="5OsUXXkd6BhJ_L30GWgg-174" value="Поля&lt;br&gt;" style="text;strokeColor=none;fillColor=#999999;align=left;verticalAlign=top;spacingLeft=4;spacingRight=4;overflow=hidden;rotatable=0;points=[[0,0.5],[1,0.5]];portConstraint=eastwest;whiteSpace=wrap;html=1;" vertex="1" parent="5OsUXXkd6BhJ_L30GWgg-173">
          <mxGeometry y="26" width="200" height="26" as="geometry" />
        </mxCell>
        <mxCell id="5OsUXXkd6BhJ_L30GWgg-175" value="_contentLoaded" style="text;strokeColor=none;fillColor=none;align=left;verticalAlign=top;spacingLeft=4;spacingRight=4;overflow=hidden;rotatable=0;points=[[0,0.5],[1,0.5]];portConstraint=eastwest;whiteSpace=wrap;html=1;" vertex="1" parent="5OsUXXkd6BhJ_L30GWgg-173">
          <mxGeometry y="52" width="200" height="28" as="geometry" />
        </mxCell>
        <mxCell id="5OsUXXkd6BhJ_L30GWgg-194" value="Game_age" style="text;strokeColor=none;fillColor=none;align=left;verticalAlign=top;spacingLeft=4;spacingRight=4;overflow=hidden;rotatable=0;points=[[0,0.5],[1,0.5]];portConstraint=eastwest;whiteSpace=wrap;html=1;" vertex="1" parent="5OsUXXkd6BhJ_L30GWgg-173">
          <mxGeometry y="80" width="200" height="28" as="geometry" />
        </mxCell>
        <mxCell id="5OsUXXkd6BhJ_L30GWgg-193" value="Game_description" style="text;strokeColor=none;fillColor=none;align=left;verticalAlign=top;spacingLeft=4;spacingRight=4;overflow=hidden;rotatable=0;points=[[0,0.5],[1,0.5]];portConstraint=eastwest;whiteSpace=wrap;html=1;" vertex="1" parent="5OsUXXkd6BhJ_L30GWgg-173">
          <mxGeometry y="108" width="200" height="28" as="geometry" />
        </mxCell>
        <mxCell id="5OsUXXkd6BhJ_L30GWgg-192" value="Game_genre" style="text;strokeColor=none;fillColor=none;align=left;verticalAlign=top;spacingLeft=4;spacingRight=4;overflow=hidden;rotatable=0;points=[[0,0.5],[1,0.5]];portConstraint=eastwest;whiteSpace=wrap;html=1;" vertex="1" parent="5OsUXXkd6BhJ_L30GWgg-173">
          <mxGeometry y="136" width="200" height="28" as="geometry" />
        </mxCell>
        <mxCell id="5OsUXXkd6BhJ_L30GWgg-191" value="Game_name" style="text;strokeColor=none;fillColor=none;align=left;verticalAlign=top;spacingLeft=4;spacingRight=4;overflow=hidden;rotatable=0;points=[[0,0.5],[1,0.5]];portConstraint=eastwest;whiteSpace=wrap;html=1;" vertex="1" parent="5OsUXXkd6BhJ_L30GWgg-173">
          <mxGeometry y="164" width="200" height="28" as="geometry" />
        </mxCell>
        <mxCell id="5OsUXXkd6BhJ_L30GWgg-190" value="ILogo" style="text;strokeColor=none;fillColor=none;align=left;verticalAlign=top;spacingLeft=4;spacingRight=4;overflow=hidden;rotatable=0;points=[[0,0.5],[1,0.5]];portConstraint=eastwest;whiteSpace=wrap;html=1;" vertex="1" parent="5OsUXXkd6BhJ_L30GWgg-173">
          <mxGeometry y="192" width="200" height="28" as="geometry" />
        </mxCell>
        <mxCell id="5OsUXXkd6BhJ_L30GWgg-189" value="IScreen1" style="text;strokeColor=none;fillColor=none;align=left;verticalAlign=top;spacingLeft=4;spacingRight=4;overflow=hidden;rotatable=0;points=[[0,0.5],[1,0.5]];portConstraint=eastwest;whiteSpace=wrap;html=1;" vertex="1" parent="5OsUXXkd6BhJ_L30GWgg-173">
          <mxGeometry y="220" width="200" height="28" as="geometry" />
        </mxCell>
        <mxCell id="5OsUXXkd6BhJ_L30GWgg-188" value="IScreen2" style="text;strokeColor=none;fillColor=none;align=left;verticalAlign=top;spacingLeft=4;spacingRight=4;overflow=hidden;rotatable=0;points=[[0,0.5],[1,0.5]];portConstraint=eastwest;whiteSpace=wrap;html=1;" vertex="1" parent="5OsUXXkd6BhJ_L30GWgg-173">
          <mxGeometry y="248" width="200" height="28" as="geometry" />
        </mxCell>
        <mxCell id="5OsUXXkd6BhJ_L30GWgg-187" value="IScreen3" style="text;strokeColor=none;fillColor=none;align=left;verticalAlign=top;spacingLeft=4;spacingRight=4;overflow=hidden;rotatable=0;points=[[0,0.5],[1,0.5]];portConstraint=eastwest;whiteSpace=wrap;html=1;" vertex="1" parent="5OsUXXkd6BhJ_L30GWgg-173">
          <mxGeometry y="276" width="200" height="28" as="geometry" />
        </mxCell>
        <mxCell id="5OsUXXkd6BhJ_L30GWgg-186" value="Logo" style="text;strokeColor=none;fillColor=none;align=left;verticalAlign=top;spacingLeft=4;spacingRight=4;overflow=hidden;rotatable=0;points=[[0,0.5],[1,0.5]];portConstraint=eastwest;whiteSpace=wrap;html=1;" vertex="1" parent="5OsUXXkd6BhJ_L30GWgg-173">
          <mxGeometry y="304" width="200" height="28" as="geometry" />
        </mxCell>
        <mxCell id="5OsUXXkd6BhJ_L30GWgg-185" value="Screen1" style="text;strokeColor=none;fillColor=none;align=left;verticalAlign=top;spacingLeft=4;spacingRight=4;overflow=hidden;rotatable=0;points=[[0,0.5],[1,0.5]];portConstraint=eastwest;whiteSpace=wrap;html=1;" vertex="1" parent="5OsUXXkd6BhJ_L30GWgg-173">
          <mxGeometry y="332" width="200" height="28" as="geometry" />
        </mxCell>
        <mxCell id="5OsUXXkd6BhJ_L30GWgg-184" value="Screen2" style="text;strokeColor=none;fillColor=none;align=left;verticalAlign=top;spacingLeft=4;spacingRight=4;overflow=hidden;rotatable=0;points=[[0,0.5],[1,0.5]];portConstraint=eastwest;whiteSpace=wrap;html=1;" vertex="1" parent="5OsUXXkd6BhJ_L30GWgg-173">
          <mxGeometry y="360" width="200" height="28" as="geometry" />
        </mxCell>
        <mxCell id="5OsUXXkd6BhJ_L30GWgg-195" value="Screen3" style="text;strokeColor=none;fillColor=none;align=left;verticalAlign=top;spacingLeft=4;spacingRight=4;overflow=hidden;rotatable=0;points=[[0,0.5],[1,0.5]];portConstraint=eastwest;whiteSpace=wrap;html=1;" vertex="1" parent="5OsUXXkd6BhJ_L30GWgg-173">
          <mxGeometry y="388" width="200" height="28" as="geometry" />
        </mxCell>
        <mxCell id="5OsUXXkd6BhJ_L30GWgg-176" value="" style="line;strokeWidth=1;fillColor=none;align=left;verticalAlign=middle;spacingTop=-1;spacingLeft=3;spacingRight=3;rotatable=0;labelPosition=right;points=[];portConstraint=eastwest;strokeColor=inherit;" vertex="1" parent="5OsUXXkd6BhJ_L30GWgg-173">
          <mxGeometry y="416" width="200" height="8" as="geometry" />
        </mxCell>
        <mxCell id="5OsUXXkd6BhJ_L30GWgg-177" value="Методы" style="text;strokeColor=none;fillColor=#999999;align=left;verticalAlign=top;spacingLeft=4;spacingRight=4;overflow=hidden;rotatable=0;points=[[0,0.5],[1,0.5]];portConstraint=eastwest;whiteSpace=wrap;html=1;" vertex="1" parent="5OsUXXkd6BhJ_L30GWgg-173">
          <mxGeometry y="424" width="200" height="26" as="geometry" />
        </mxCell>
        <mxCell id="5OsUXXkd6BhJ_L30GWgg-178" value="Button_Click_1" style="text;strokeColor=none;fillColor=none;align=left;verticalAlign=top;spacingLeft=4;spacingRight=4;overflow=hidden;rotatable=0;points=[[0,0.5],[1,0.5]];portConstraint=eastwest;whiteSpace=wrap;html=1;" vertex="1" parent="5OsUXXkd6BhJ_L30GWgg-173">
          <mxGeometry y="450" width="200" height="26" as="geometry" />
        </mxCell>
        <mxCell id="5OsUXXkd6BhJ_L30GWgg-179" value="Button_Click" style="text;strokeColor=none;fillColor=none;align=left;verticalAlign=top;spacingLeft=4;spacingRight=4;overflow=hidden;rotatable=0;points=[[0,0.5],[1,0.5]];portConstraint=eastwest;whiteSpace=wrap;html=1;" vertex="1" parent="5OsUXXkd6BhJ_L30GWgg-173">
          <mxGeometry y="476" width="200" height="26" as="geometry" />
        </mxCell>
        <mxCell id="5OsUXXkd6BhJ_L30GWgg-180" value="IComponentConnector.Connect" style="text;strokeColor=none;fillColor=none;align=left;verticalAlign=top;spacingLeft=4;spacingRight=4;overflow=hidden;rotatable=0;points=[[0,0.5],[1,0.5]];portConstraint=eastwest;whiteSpace=wrap;html=1;" vertex="1" parent="5OsUXXkd6BhJ_L30GWgg-173">
          <mxGeometry y="502" width="200" height="26" as="geometry" />
        </mxCell>
        <mxCell id="5OsUXXkd6BhJ_L30GWgg-181" value="ImageToByteArray" style="text;strokeColor=none;fillColor=none;align=left;verticalAlign=top;spacingLeft=4;spacingRight=4;overflow=hidden;rotatable=0;points=[[0,0.5],[1,0.5]];portConstraint=eastwest;whiteSpace=wrap;html=1;" vertex="1" parent="5OsUXXkd6BhJ_L30GWgg-173">
          <mxGeometry y="528" width="200" height="26" as="geometry" />
        </mxCell>
        <mxCell id="5OsUXXkd6BhJ_L30GWgg-182" value="InitializeComponent" style="text;strokeColor=none;fillColor=none;align=left;verticalAlign=top;spacingLeft=4;spacingRight=4;overflow=hidden;rotatable=0;points=[[0,0.5],[1,0.5]];portConstraint=eastwest;whiteSpace=wrap;html=1;" vertex="1" parent="5OsUXXkd6BhJ_L30GWgg-173">
          <mxGeometry y="554" width="200" height="26" as="geometry" />
        </mxCell>
        <mxCell id="5OsUXXkd6BhJ_L30GWgg-183" value="&amp;nbsp;MainWindowA" style="text;strokeColor=none;fillColor=none;align=left;verticalAlign=top;spacingLeft=4;spacingRight=4;overflow=hidden;rotatable=0;points=[[0,0.5],[1,0.5]];portConstraint=eastwest;whiteSpace=wrap;html=1;" vertex="1" parent="5OsUXXkd6BhJ_L30GWgg-173">
          <mxGeometry y="580" width="200" height="26" as="geometry" />
        </mxCell>
        <mxCell id="5OsUXXkd6BhJ_L30GWgg-196" value="SelectImageButton_Click" style="text;strokeColor=none;fillColor=none;align=left;verticalAlign=top;spacingLeft=4;spacingRight=4;overflow=hidden;rotatable=0;points=[[0,0.5],[1,0.5]];portConstraint=eastwest;whiteSpace=wrap;html=1;" vertex="1" parent="5OsUXXkd6BhJ_L30GWgg-173">
          <mxGeometry y="606" width="200" height="26" as="geometry" />
        </mxCell>
        <mxCell id="5OsUXXkd6BhJ_L30GWgg-244" style="edgeStyle=orthogonalEdgeStyle;rounded=0;orthogonalLoop=1;jettySize=auto;html=1;" edge="1" parent="WIyWlLk6GJQsqaUBKTNV-1" source="5OsUXXkd6BhJ_L30GWgg-197">
          <mxGeometry relative="1" as="geometry">
            <mxPoint x="1410" y="-40" as="targetPoint" />
          </mxGeometry>
        </mxCell>
        <mxCell id="5OsUXXkd6BhJ_L30GWgg-197" value="Admin" style="swimlane;fontStyle=1;align=center;verticalAlign=top;childLayout=stackLayout;horizontal=1;startSize=26;horizontalStack=0;resizeParent=1;resizeParentMax=0;resizeLast=0;collapsible=1;marginBottom=0;whiteSpace=wrap;html=1;" vertex="1" parent="WIyWlLk6GJQsqaUBKTNV-1">
          <mxGeometry x="1200" y="340" width="200" height="192" as="geometry" />
        </mxCell>
        <mxCell id="5OsUXXkd6BhJ_L30GWgg-198" value="Поля&lt;br&gt;" style="text;strokeColor=none;fillColor=#999999;align=left;verticalAlign=top;spacingLeft=4;spacingRight=4;overflow=hidden;rotatable=0;points=[[0,0.5],[1,0.5]];portConstraint=eastwest;whiteSpace=wrap;html=1;" vertex="1" parent="5OsUXXkd6BhJ_L30GWgg-197">
          <mxGeometry y="26" width="200" height="26" as="geometry" />
        </mxCell>
        <mxCell id="5OsUXXkd6BhJ_L30GWgg-199" value="connectionString" style="text;strokeColor=none;fillColor=none;align=left;verticalAlign=top;spacingLeft=4;spacingRight=4;overflow=hidden;rotatable=0;points=[[0,0.5],[1,0.5]];portConstraint=eastwest;whiteSpace=wrap;html=1;" vertex="1" parent="5OsUXXkd6BhJ_L30GWgg-197">
          <mxGeometry y="52" width="200" height="28" as="geometry" />
        </mxCell>
        <mxCell id="5OsUXXkd6BhJ_L30GWgg-212" value="" style="line;strokeWidth=1;fillColor=none;align=left;verticalAlign=middle;spacingTop=-1;spacingLeft=3;spacingRight=3;rotatable=0;labelPosition=right;points=[];portConstraint=eastwest;strokeColor=inherit;" vertex="1" parent="5OsUXXkd6BhJ_L30GWgg-197">
          <mxGeometry y="80" width="200" height="8" as="geometry" />
        </mxCell>
        <mxCell id="5OsUXXkd6BhJ_L30GWgg-213" value="Методы" style="text;strokeColor=none;fillColor=#999999;align=left;verticalAlign=top;spacingLeft=4;spacingRight=4;overflow=hidden;rotatable=0;points=[[0,0.5],[1,0.5]];portConstraint=eastwest;whiteSpace=wrap;html=1;" vertex="1" parent="5OsUXXkd6BhJ_L30GWgg-197">
          <mxGeometry y="88" width="200" height="26" as="geometry" />
        </mxCell>
        <mxCell id="5OsUXXkd6BhJ_L30GWgg-214" value="CheckAdmin" style="text;strokeColor=none;fillColor=none;align=left;verticalAlign=top;spacingLeft=4;spacingRight=4;overflow=hidden;rotatable=0;points=[[0,0.5],[1,0.5]];portConstraint=eastwest;whiteSpace=wrap;html=1;" vertex="1" parent="5OsUXXkd6BhJ_L30GWgg-197">
          <mxGeometry y="114" width="200" height="26" as="geometry" />
        </mxCell>
        <mxCell id="5OsUXXkd6BhJ_L30GWgg-215" value="InsertAdmin" style="text;strokeColor=none;fillColor=none;align=left;verticalAlign=top;spacingLeft=4;spacingRight=4;overflow=hidden;rotatable=0;points=[[0,0.5],[1,0.5]];portConstraint=eastwest;whiteSpace=wrap;html=1;" vertex="1" parent="5OsUXXkd6BhJ_L30GWgg-197">
          <mxGeometry y="140" width="200" height="26" as="geometry" />
        </mxCell>
        <mxCell id="5OsUXXkd6BhJ_L30GWgg-216" value="InsertGame" style="text;strokeColor=none;fillColor=none;align=left;verticalAlign=top;spacingLeft=4;spacingRight=4;overflow=hidden;rotatable=0;points=[[0,0.5],[1,0.5]];portConstraint=eastwest;whiteSpace=wrap;html=1;" vertex="1" parent="5OsUXXkd6BhJ_L30GWgg-197">
          <mxGeometry y="166" width="200" height="26" as="geometry" />
        </mxCell>
        <mxCell id="5OsUXXkd6BhJ_L30GWgg-245" style="edgeStyle=orthogonalEdgeStyle;rounded=0;orthogonalLoop=1;jettySize=auto;html=1;" edge="1" parent="WIyWlLk6GJQsqaUBKTNV-1" source="5OsUXXkd6BhJ_L30GWgg-221">
          <mxGeometry relative="1" as="geometry">
            <mxPoint x="1670" y="-40" as="targetPoint" />
          </mxGeometry>
        </mxCell>
        <mxCell id="5OsUXXkd6BhJ_L30GWgg-221" value="User" style="swimlane;fontStyle=1;align=center;verticalAlign=top;childLayout=stackLayout;horizontal=1;startSize=26;horizontalStack=0;resizeParent=1;resizeParentMax=0;resizeLast=0;collapsible=1;marginBottom=0;whiteSpace=wrap;html=1;" vertex="1" parent="WIyWlLk6GJQsqaUBKTNV-1">
          <mxGeometry x="1440" y="585" width="200" height="166" as="geometry" />
        </mxCell>
        <mxCell id="5OsUXXkd6BhJ_L30GWgg-222" value="Поля&lt;br&gt;" style="text;strokeColor=none;fillColor=#999999;align=left;verticalAlign=top;spacingLeft=4;spacingRight=4;overflow=hidden;rotatable=0;points=[[0,0.5],[1,0.5]];portConstraint=eastwest;whiteSpace=wrap;html=1;" vertex="1" parent="5OsUXXkd6BhJ_L30GWgg-221">
          <mxGeometry y="26" width="200" height="26" as="geometry" />
        </mxCell>
        <mxCell id="5OsUXXkd6BhJ_L30GWgg-223" value="connectionString" style="text;strokeColor=none;fillColor=none;align=left;verticalAlign=top;spacingLeft=4;spacingRight=4;overflow=hidden;rotatable=0;points=[[0,0.5],[1,0.5]];portConstraint=eastwest;whiteSpace=wrap;html=1;" vertex="1" parent="5OsUXXkd6BhJ_L30GWgg-221">
          <mxGeometry y="52" width="200" height="28" as="geometry" />
        </mxCell>
        <mxCell id="5OsUXXkd6BhJ_L30GWgg-224" value="" style="line;strokeWidth=1;fillColor=none;align=left;verticalAlign=middle;spacingTop=-1;spacingLeft=3;spacingRight=3;rotatable=0;labelPosition=right;points=[];portConstraint=eastwest;strokeColor=inherit;" vertex="1" parent="5OsUXXkd6BhJ_L30GWgg-221">
          <mxGeometry y="80" width="200" height="8" as="geometry" />
        </mxCell>
        <mxCell id="5OsUXXkd6BhJ_L30GWgg-225" value="Методы" style="text;strokeColor=none;fillColor=#999999;align=left;verticalAlign=top;spacingLeft=4;spacingRight=4;overflow=hidden;rotatable=0;points=[[0,0.5],[1,0.5]];portConstraint=eastwest;whiteSpace=wrap;html=1;" vertex="1" parent="5OsUXXkd6BhJ_L30GWgg-221">
          <mxGeometry y="88" width="200" height="26" as="geometry" />
        </mxCell>
        <mxCell id="5OsUXXkd6BhJ_L30GWgg-226" value="CheckUser" style="text;strokeColor=none;fillColor=none;align=left;verticalAlign=top;spacingLeft=4;spacingRight=4;overflow=hidden;rotatable=0;points=[[0,0.5],[1,0.5]];portConstraint=eastwest;whiteSpace=wrap;html=1;" vertex="1" parent="5OsUXXkd6BhJ_L30GWgg-221">
          <mxGeometry y="114" width="200" height="26" as="geometry" />
        </mxCell>
        <mxCell id="5OsUXXkd6BhJ_L30GWgg-227" value="InsertUser" style="text;strokeColor=none;fillColor=none;align=left;verticalAlign=top;spacingLeft=4;spacingRight=4;overflow=hidden;rotatable=0;points=[[0,0.5],[1,0.5]];portConstraint=eastwest;whiteSpace=wrap;html=1;" vertex="1" parent="5OsUXXkd6BhJ_L30GWgg-221">
          <mxGeometry y="140" width="200" height="26" as="geometry" />
        </mxCell>
        <mxCell id="5OsUXXkd6BhJ_L30GWgg-233" style="edgeStyle=orthogonalEdgeStyle;rounded=0;orthogonalLoop=1;jettySize=auto;html=1;" edge="1" parent="WIyWlLk6GJQsqaUBKTNV-1" source="5OsUXXkd6BhJ_L30GWgg-230">
          <mxGeometry relative="1" as="geometry">
            <mxPoint x="1215" y="-40" as="targetPoint" />
          </mxGeometry>
        </mxCell>
        <mxCell id="5OsUXXkd6BhJ_L30GWgg-230" value="BaseViewModel" style="html=1;whiteSpace=wrap;" vertex="1" parent="WIyWlLk6GJQsqaUBKTNV-1">
          <mxGeometry x="1160" y="-130" width="110" height="50" as="geometry" />
        </mxCell>
        <mxCell id="5OsUXXkd6BhJ_L30GWgg-231" value="" style="endArrow=none;html=1;rounded=0;" edge="1" parent="WIyWlLk6GJQsqaUBKTNV-1">
          <mxGeometry width="50" height="50" relative="1" as="geometry">
            <mxPoint x="80" y="-40" as="sourcePoint" />
            <mxPoint x="2560" y="-40" as="targetPoint" />
          </mxGeometry>
        </mxCell>
      </root>
    </mxGraphModel>
  </diagram>
</mxfile>
